<svg width="20" height="20" viewBox="0 0 20 20" fill="none" xmlns="http://www.w3.org/2000/svg">
<path d="M5.88068 0C2.6527 0 0 2.64915 0 5.88068V14.1193C0 17.3473 2.64915 20 5.88068 20H14.1193C17.3473 20 20 17.3509 20 14.1193V5.88068C20 2.6527 17.3509 0 14.1193 0H5.88068ZM5.88068 1.81818H14.1193C16.3672 1.81818 18.1818 3.63281 18.1818 5.88068V14.1193C18.1818 16.3672 16.3672 18.1818 14.1193 18.1818H5.88068C3.63281 18.1818 1.81818 16.3672 1.81818 14.1193V5.88068C1.81818 3.63281 3.63281 1.81818 5.88068 1.81818ZM15.3693 3.80682C14.9112 3.80682 14.5455 4.17259 14.5455 4.63068C14.5455 5.08878 14.9112 5.45455 15.3693 5.45455C15.8274 5.45455 16.1932 5.08878 16.1932 4.63068C16.1932 4.17259 15.8274 3.80682 15.3693 3.80682ZM10 4.54545C6.99929 4.54545 4.54545 6.99929 4.54545 10C4.54545 13.0007 6.99929 15.4545 10 15.4545C13.0007 15.4545 15.4545 13.0007 15.4545 10C15.4545 6.99929 13.0007 4.54545 10 4.54545ZM10 6.36364C12.0206 6.36364 13.6364 7.9794 13.6364 10C13.6364 12.0206 12.0206 13.6364 10 13.6364C7.9794 13.6364 6.36364 12.0206 6.36364 10C6.36364 7.9794 7.9794 6.36364 10 6.36364Z" fill="black"/>
</svg>
