<svg xmlns="http://www.w3.org/2000/svg" xmlns:xlink="http://www.w3.org/1999/xlink" width="341" zoomAndPan="magnify" viewBox="0 0 255.75 90.749999" height="121" preserveAspectRatio="xMidYMid meet" version="1.0"><defs><filter x="0%" y="0%" width="100%" height="100%" id="eb52fe8371"><feColorMatrix values="0 0 0 0 1 0 0 0 0 1 0 0 0 0 1 0 0 0 1 0" color-interpolation-filters="sRGB"/></filter><g/><clipPath id="86602741c4"><path d="M 179 0 L 255.273438 0 L 255.273438 90.5 L 179 90.5 Z M 179 0 " clip-rule="nonzero"/></clipPath><mask id="7dfbe49adf"><g filter="url(#eb52fe8371)"><rect x="-25.575" width="306.9" fill="#000000" y="-9.075" height="108.899999" fill-opacity="0.99"/></g></mask><clipPath id="386cbdce5a"><path d="M 26 49 L 55 49 L 55 82 L 26 82 Z M 26 49 " clip-rule="nonzero"/></clipPath><clipPath id="cc37050e62"><path d="M 1.21875 19.882812 L 35.804688 -0.0390625 L 76.058594 69.839844 L 41.476562 89.765625 Z M 1.21875 19.882812 " clip-rule="nonzero"/></clipPath><clipPath id="043f687cfc"><path d="M 1.21875 19.882812 L 35.804688 -0.0390625 L 76.058594 69.839844 L 41.476562 89.765625 Z M 1.21875 19.882812 " clip-rule="nonzero"/></clipPath><clipPath id="496e5d4bfe"><path d="M 25.742188 50.609375 L 36.660156 44.320312 L 57.410156 80.339844 L 46.496094 86.628906 Z M 25.742188 50.609375 " clip-rule="nonzero"/></clipPath><clipPath id="3683b25f6f"><path d="M 18 47 L 27 47 L 27 53 L 18 53 Z M 18 47 " clip-rule="nonzero"/></clipPath><clipPath id="33317472c4"><path d="M 1.21875 19.882812 L 35.804688 -0.0390625 L 76.058594 69.839844 L 41.476562 89.765625 Z M 1.21875 19.882812 " clip-rule="nonzero"/></clipPath><clipPath id="ae3792d6ee"><path d="M 1.21875 19.882812 L 35.804688 -0.0390625 L 76.058594 69.839844 L 41.476562 89.765625 Z M 1.21875 19.882812 " clip-rule="nonzero"/></clipPath><clipPath id="88eaa3aeb1"><path d="M 19 44 L 29 44 L 29 52 L 19 52 Z M 19 44 " clip-rule="nonzero"/></clipPath><clipPath id="5b4d513ac4"><path d="M 1.21875 19.882812 L 35.804688 -0.0390625 L 76.058594 69.839844 L 41.476562 89.765625 Z M 1.21875 19.882812 " clip-rule="nonzero"/></clipPath><clipPath id="31fd290661"><path d="M 1.21875 19.882812 L 35.804688 -0.0390625 L 76.058594 69.839844 L 41.476562 89.765625 Z M 1.21875 19.882812 " clip-rule="nonzero"/></clipPath><clipPath id="8026b79de2"><path d="M 24 47 L 28 47 L 28 51 L 24 51 Z M 24 47 " clip-rule="nonzero"/></clipPath><clipPath id="16b511c41e"><path d="M 1.21875 19.882812 L 35.804688 -0.0390625 L 76.058594 69.839844 L 41.476562 89.765625 Z M 1.21875 19.882812 " clip-rule="nonzero"/></clipPath><clipPath id="757f5b73d4"><path d="M 1.21875 19.882812 L 35.804688 -0.0390625 L 76.058594 69.839844 L 41.476562 89.765625 Z M 1.21875 19.882812 " clip-rule="nonzero"/></clipPath><clipPath id="83c7ca2f3a"><path d="M 21 50 L 26 50 L 26 52 L 21 52 Z M 21 50 " clip-rule="nonzero"/></clipPath><clipPath id="8583ba49dc"><path d="M 1.21875 19.882812 L 35.804688 -0.0390625 L 76.058594 69.839844 L 41.476562 89.765625 Z M 1.21875 19.882812 " clip-rule="nonzero"/></clipPath><clipPath id="638a258187"><path d="M 1.21875 19.882812 L 35.804688 -0.0390625 L 76.058594 69.839844 L 41.476562 89.765625 Z M 1.21875 19.882812 " clip-rule="nonzero"/></clipPath><clipPath id="0f827ae6ac"><path d="M 8 8 L 50 8 L 50 71 L 8 71 Z M 8 8 " clip-rule="nonzero"/></clipPath><clipPath id="dbe0d4f327"><path d="M 1.21875 19.882812 L 35.804688 -0.0390625 L 76.058594 69.839844 L 41.476562 89.765625 Z M 1.21875 19.882812 " clip-rule="nonzero"/></clipPath><clipPath id="0974a0ab15"><path d="M 1.21875 19.882812 L 35.804688 -0.0390625 L 76.058594 69.839844 L 41.476562 89.765625 Z M 1.21875 19.882812 " clip-rule="nonzero"/></clipPath><clipPath id="809812f277"><path d="M 16 28 L 23 28 L 23 30 L 16 30 Z M 16 28 " clip-rule="nonzero"/></clipPath><clipPath id="17b87d8f81"><path d="M 1.21875 19.882812 L 35.804688 -0.0390625 L 76.058594 69.839844 L 41.476562 89.765625 Z M 1.21875 19.882812 " clip-rule="nonzero"/></clipPath><clipPath id="e9954f3762"><path d="M 1.21875 19.882812 L 35.804688 -0.0390625 L 76.058594 69.839844 L 41.476562 89.765625 Z M 1.21875 19.882812 " clip-rule="nonzero"/></clipPath><clipPath id="6ee0ec6de5"><path d="M 24 20 L 26 20 L 26 28 L 24 28 Z M 24 20 " clip-rule="nonzero"/></clipPath><clipPath id="eaf2f93b68"><path d="M 1.21875 19.882812 L 35.804688 -0.0390625 L 76.058594 69.839844 L 41.476562 89.765625 Z M 1.21875 19.882812 " clip-rule="nonzero"/></clipPath><clipPath id="a300d7acdd"><path d="M 1.21875 19.882812 L 35.804688 -0.0390625 L 76.058594 69.839844 L 41.476562 89.765625 Z M 1.21875 19.882812 " clip-rule="nonzero"/></clipPath><clipPath id="4e49fedd3a"><path d="M 18 25 L 23 25 L 23 28 L 18 28 Z M 18 25 " clip-rule="nonzero"/></clipPath><clipPath id="e8d51dbea8"><path d="M 1.21875 19.882812 L 35.804688 -0.0390625 L 76.058594 69.839844 L 41.476562 89.765625 Z M 1.21875 19.882812 " clip-rule="nonzero"/></clipPath><clipPath id="ef2bc98431"><path d="M 1.21875 19.882812 L 35.804688 -0.0390625 L 76.058594 69.839844 L 41.476562 89.765625 Z M 1.21875 19.882812 " clip-rule="nonzero"/></clipPath><clipPath id="89b9c090ae"><path d="M 21 23 L 24 23 L 24 28 L 21 28 Z M 21 23 " clip-rule="nonzero"/></clipPath><clipPath id="0f76854252"><path d="M 1.21875 19.882812 L 35.804688 -0.0390625 L 76.058594 69.839844 L 41.476562 89.765625 Z M 1.21875 19.882812 " clip-rule="nonzero"/></clipPath><clipPath id="b64de108f6"><path d="M 1.21875 19.882812 L 35.804688 -0.0390625 L 76.058594 69.839844 L 41.476562 89.765625 Z M 1.21875 19.882812 " clip-rule="nonzero"/></clipPath><clipPath id="a26d5154b0"><path d="M 34 23 L 52 23 L 52 51 L 34 51 Z M 34 23 " clip-rule="nonzero"/></clipPath><clipPath id="37fb44e5dc"><path d="M 1.21875 19.882812 L 35.804688 -0.0390625 L 76.058594 69.839844 L 41.476562 89.765625 Z M 1.21875 19.882812 " clip-rule="nonzero"/></clipPath><clipPath id="0412ee89ca"><path d="M 1.21875 19.882812 L 35.804688 -0.0390625 L 76.058594 69.839844 L 41.476562 89.765625 Z M 1.21875 19.882812 " clip-rule="nonzero"/></clipPath><clipPath id="11ce88852a"><path d="M 28.308594 27.882812 L 46.78125 17.238281 L 60.324219 40.75 L 41.851562 51.394531 Z M 28.308594 27.882812 " clip-rule="nonzero"/></clipPath><clipPath id="2343b3bf5a"><path d="M 28.308594 27.882812 L 45.984375 17.699219 L 59.527344 41.210938 L 41.851562 51.394531 Z M 28.308594 27.882812 " clip-rule="nonzero"/></clipPath><clipPath id="ac6d3998c1"><path d="M 39 30 L 43 30 L 43 35 L 39 35 Z M 39 30 " clip-rule="nonzero"/></clipPath><clipPath id="aa4c0f9ca7"><path d="M 1.21875 19.882812 L 35.804688 -0.0390625 L 76.058594 69.839844 L 41.476562 89.765625 Z M 1.21875 19.882812 " clip-rule="nonzero"/></clipPath><clipPath id="3af07d8680"><path d="M 1.21875 19.882812 L 35.804688 -0.0390625 L 76.058594 69.839844 L 41.476562 89.765625 Z M 1.21875 19.882812 " clip-rule="nonzero"/></clipPath><clipPath id="2b551159c8"><path d="M 44 30 L 48 30 L 48 35 L 44 35 Z M 44 30 " clip-rule="nonzero"/></clipPath><clipPath id="74e49bcc9e"><path d="M 1.21875 19.882812 L 35.804688 -0.0390625 L 76.058594 69.839844 L 41.476562 89.765625 Z M 1.21875 19.882812 " clip-rule="nonzero"/></clipPath><clipPath id="f0fdf762fd"><path d="M 1.21875 19.882812 L 35.804688 -0.0390625 L 76.058594 69.839844 L 41.476562 89.765625 Z M 1.21875 19.882812 " clip-rule="nonzero"/></clipPath><clipPath id="2700b3cff9"><path d="M 42 28 L 44 28 L 44 33 L 42 33 Z M 42 28 " clip-rule="nonzero"/></clipPath><clipPath id="e506e3e2b9"><path d="M 1.21875 19.882812 L 35.804688 -0.0390625 L 76.058594 69.839844 L 41.476562 89.765625 Z M 1.21875 19.882812 " clip-rule="nonzero"/></clipPath><clipPath id="257aab31db"><path d="M 1.21875 19.882812 L 35.804688 -0.0390625 L 76.058594 69.839844 L 41.476562 89.765625 Z M 1.21875 19.882812 " clip-rule="nonzero"/></clipPath><clipPath id="858f16831c"><rect x="0" width="77" y="0" height="91"/></clipPath></defs><g fill="#000000" fill-opacity="1"><g transform="translate(28.011907, 51.795505)"><g><path d="M 10.59375 -8 C 11.09375 -7.863281 11.523438 -7.628906 11.890625 -7.296875 C 12.253906 -6.972656 12.582031 -6.515625 12.875 -5.921875 L 15.21875 -1.140625 L 17.171875 -1.140625 L 17.171875 0 L 13.375 0 L 10.859375 -5.125 C 10.378906 -6.125 9.9375 -6.765625 9.53125 -7.046875 C 9.125 -7.335938 8.570312 -7.484375 7.875 -7.484375 L 5.46875 -7.484375 L 5.46875 -1.140625 L 7.734375 -1.140625 L 7.734375 0 L 1.21875 0 L 1.21875 -1.140625 L 3.265625 -1.140625 L 3.265625 -14.96875 L 1.21875 -14.96875 L 1.21875 -16.125 L 9.390625 -16.125 C 10.960938 -16.125 12.171875 -15.75 13.015625 -15 C 13.867188 -14.25 14.296875 -13.1875 14.296875 -11.8125 C 14.296875 -10.695312 13.984375 -9.820312 13.359375 -9.1875 C 12.742188 -8.550781 11.820312 -8.15625 10.59375 -8 Z M 5.46875 -8.640625 L 8.640625 -8.640625 C 9.734375 -8.640625 10.535156 -8.894531 11.046875 -9.40625 C 11.566406 -9.925781 11.828125 -10.726562 11.828125 -11.8125 C 11.828125 -12.894531 11.566406 -13.691406 11.046875 -14.203125 C 10.535156 -14.710938 9.734375 -14.96875 8.640625 -14.96875 L 5.46875 -14.96875 Z M 5.46875 -8.640625 "/></g></g></g><g fill="#000000" fill-opacity="1"><g transform="translate(44.656202, 51.795505)"><g><path d="M 11.984375 -5.53125 L 3.421875 -5.53125 L 3.421875 -5.4375 C 3.421875 -3.894531 3.710938 -2.726562 4.296875 -1.9375 C 4.878906 -1.144531 5.738281 -0.75 6.875 -0.75 C 7.75 -0.75 8.460938 -0.976562 9.015625 -1.4375 C 9.578125 -1.894531 9.96875 -2.570312 10.1875 -3.46875 L 11.78125 -3.46875 C 11.46875 -2.21875 10.882812 -1.273438 10.03125 -0.640625 C 9.175781 -0.00390625 8.054688 0.3125 6.671875 0.3125 C 4.992188 0.3125 3.644531 -0.238281 2.625 -1.34375 C 1.601562 -2.445312 1.09375 -3.914062 1.09375 -5.75 C 1.09375 -7.5625 1.59375 -9.019531 2.59375 -10.125 C 3.601562 -11.226562 4.921875 -11.78125 6.546875 -11.78125 C 8.273438 -11.78125 9.601562 -11.242188 10.53125 -10.171875 C 11.457031 -9.109375 11.941406 -7.5625 11.984375 -5.53125 Z M 9.640625 -6.671875 C 9.597656 -8.003906 9.316406 -9.007812 8.796875 -9.6875 C 8.273438 -10.375 7.523438 -10.71875 6.546875 -10.71875 C 5.628906 -10.71875 4.90625 -10.375 4.375 -9.6875 C 3.851562 -9.007812 3.535156 -8.003906 3.421875 -6.671875 Z M 9.640625 -6.671875 "/></g></g></g><g fill="#000000" fill-opacity="1"><g transform="translate(57.738488, 51.795505)"><g><path d="M 4.765625 2.109375 L 5.53125 0.1875 L 1.234375 -10.328125 L -0.0625 -10.328125 L -0.0625 -11.46875 L 5.21875 -11.46875 L 5.21875 -10.328125 L 3.375 -10.328125 L 6.609375 -2.421875 L 9.828125 -10.328125 L 8.125 -10.328125 L 8.125 -11.46875 L 12.421875 -11.46875 L 12.421875 -10.328125 L 11.140625 -10.328125 L 5.890625 2.59375 C 5.523438 3.476562 5.125 4.082031 4.6875 4.40625 C 4.25 4.738281 3.628906 4.90625 2.828125 4.90625 C 2.492188 4.90625 2.144531 4.875 1.78125 4.8125 C 1.425781 4.757812 1.070312 4.679688 0.71875 4.578125 L 0.71875 2.390625 L 1.734375 2.390625 C 1.773438 2.878906 1.894531 3.226562 2.09375 3.4375 C 2.300781 3.644531 2.625 3.75 3.0625 3.75 C 3.457031 3.75 3.773438 3.640625 4.015625 3.421875 C 4.253906 3.203125 4.503906 2.765625 4.765625 2.109375 Z M 4.765625 2.109375 "/></g></g></g><g fill="#000000" fill-opacity="1"><g transform="translate(70.227111, 51.795505)"><g><path d="M 0.90625 0 L 0.90625 -1.140625 L 2.703125 -1.140625 L 2.703125 -15.65625 L 0.796875 -15.65625 L 0.796875 -16.796875 L 4.6875 -16.796875 L 4.6875 -9.4375 C 5.050781 -10.207031 5.523438 -10.789062 6.109375 -11.1875 C 6.703125 -11.582031 7.382812 -11.78125 8.15625 -11.78125 C 9.425781 -11.78125 10.359375 -11.414062 10.953125 -10.6875 C 11.554688 -9.96875 11.859375 -8.835938 11.859375 -7.296875 L 11.859375 -1.140625 L 13.625 -1.140625 L 13.625 0 L 8.140625 0 L 8.140625 -1.140625 L 9.859375 -1.140625 L 9.859375 -6.671875 C 9.859375 -8.078125 9.6875 -9.035156 9.34375 -9.546875 C 9 -10.066406 8.390625 -10.328125 7.515625 -10.328125 C 6.585938 -10.328125 5.882812 -9.988281 5.40625 -9.3125 C 4.925781 -8.644531 4.6875 -7.671875 4.6875 -6.390625 L 4.6875 -1.140625 L 6.40625 -1.140625 L 6.40625 0 Z M 0.90625 0 "/></g></g></g><g fill="#000000" fill-opacity="1"><g transform="translate(84.464357, 51.795505)"><g><path d="M 8.796875 -3.609375 L 8.796875 -6.03125 L 6.234375 -6.03125 C 5.253906 -6.03125 4.519531 -5.816406 4.03125 -5.390625 C 3.550781 -4.972656 3.3125 -4.320312 3.3125 -3.4375 C 3.3125 -2.644531 3.554688 -2.015625 4.046875 -1.546875 C 4.535156 -1.078125 5.195312 -0.84375 6.03125 -0.84375 C 6.863281 -0.84375 7.53125 -1.097656 8.03125 -1.609375 C 8.539062 -2.117188 8.796875 -2.785156 8.796875 -3.609375 Z M 10.78125 -7.171875 L 10.78125 -1.140625 L 12.5625 -1.140625 L 12.5625 0 L 8.796875 0 L 8.796875 -1.234375 C 8.359375 -0.703125 7.847656 -0.3125 7.265625 -0.0625 C 6.691406 0.1875 6.019531 0.3125 5.25 0.3125 C 3.976562 0.3125 2.96875 -0.0234375 2.21875 -0.703125 C 1.46875 -1.378906 1.09375 -2.289062 1.09375 -3.4375 C 1.09375 -4.625 1.519531 -5.546875 2.375 -6.203125 C 3.238281 -6.859375 4.453125 -7.1875 6.015625 -7.1875 L 8.796875 -7.1875 L 8.796875 -7.984375 C 8.796875 -8.847656 8.53125 -9.519531 8 -10 C 7.476562 -10.476562 6.738281 -10.71875 5.78125 -10.71875 C 4.988281 -10.71875 4.359375 -10.535156 3.890625 -10.171875 C 3.421875 -9.816406 3.128906 -9.285156 3.015625 -8.578125 L 1.984375 -8.578125 L 1.984375 -10.90625 C 2.671875 -11.195312 3.34375 -11.414062 4 -11.5625 C 4.65625 -11.707031 5.289062 -11.78125 5.90625 -11.78125 C 7.5 -11.78125 8.707031 -11.382812 9.53125 -10.59375 C 10.363281 -9.8125 10.78125 -8.671875 10.78125 -7.171875 Z M 10.78125 -7.171875 "/></g></g></g><g fill="#000000" fill-opacity="1"><g transform="translate(97.643794, 51.795505)"><g><path d="M 0.90625 0 L 0.90625 -1.140625 L 2.703125 -1.140625 L 2.703125 -10.328125 L 0.796875 -10.328125 L 0.796875 -11.46875 L 4.6875 -11.46875 L 4.6875 -9.4375 C 5.050781 -10.207031 5.523438 -10.789062 6.109375 -11.1875 C 6.703125 -11.582031 7.382812 -11.78125 8.15625 -11.78125 C 9.425781 -11.78125 10.359375 -11.414062 10.953125 -10.6875 C 11.554688 -9.96875 11.859375 -8.835938 11.859375 -7.296875 L 11.859375 -1.140625 L 13.625 -1.140625 L 13.625 0 L 8.140625 0 L 8.140625 -1.140625 L 9.859375 -1.140625 L 9.859375 -6.671875 C 9.859375 -8.078125 9.679688 -9.039062 9.328125 -9.5625 C 8.984375 -10.082031 8.378906 -10.34375 7.515625 -10.34375 C 6.585938 -10.34375 5.882812 -10.003906 5.40625 -9.328125 C 4.925781 -8.660156 4.6875 -7.679688 4.6875 -6.390625 L 4.6875 -1.140625 L 6.40625 -1.140625 L 6.40625 0 Z M 0.90625 0 "/></g></g></g><g fill="#000000" fill-opacity="1"><g transform="translate(111.881039, 51.795505)"><g/></g></g><g fill="#000000" fill-opacity="1"><g transform="translate(118.907916, 51.795505)"><g><path d="M 1.21875 0 L 1.21875 -1.140625 L 3.265625 -1.140625 L 3.265625 -14.96875 L 1.21875 -14.96875 L 1.21875 -16.125 L 14.203125 -16.125 L 14.203125 -12.53125 L 12.875 -12.53125 L 12.875 -14.796875 L 5.46875 -14.796875 L 5.46875 -9.390625 L 10.734375 -9.390625 L 10.734375 -11.40625 L 12.0625 -11.40625 L 12.0625 -6.0625 L 10.734375 -6.0625 L 10.734375 -8.078125 L 5.46875 -8.078125 L 5.46875 -1.328125 L 13.046875 -1.328125 L 13.046875 -3.578125 L 14.375 -3.578125 L 14.375 0 Z M 1.21875 0 "/></g></g></g><g fill="#000000" fill-opacity="1"><g transform="translate(135.044899, 51.795505)"><g><path d="M 10.5625 -11.5 L 10.5625 -8.625 L 9.421875 -8.625 C 9.390625 -9.195312 9.234375 -9.625 8.953125 -9.90625 C 8.671875 -10.1875 8.257812 -10.328125 7.71875 -10.328125 C 6.738281 -10.328125 5.988281 -9.988281 5.46875 -9.3125 C 4.945312 -8.632812 4.6875 -7.660156 4.6875 -6.390625 L 4.6875 -1.140625 L 6.984375 -1.140625 L 6.984375 0 L 0.90625 0 L 0.90625 -1.140625 L 2.703125 -1.140625 L 2.703125 -10.34375 L 0.796875 -10.34375 L 0.796875 -11.46875 L 4.6875 -11.46875 L 4.6875 -9.4375 C 5.070312 -10.238281 5.570312 -10.828125 6.1875 -11.203125 C 6.800781 -11.585938 7.546875 -11.78125 8.421875 -11.78125 C 8.742188 -11.78125 9.082031 -11.753906 9.4375 -11.703125 C 9.789062 -11.660156 10.164062 -11.59375 10.5625 -11.5 Z M 10.5625 -11.5 "/></g></g></g><g fill="#000000" fill-opacity="1"><g transform="translate(145.612197, 51.795505)"><g><path d="M 11.984375 -5.53125 L 3.421875 -5.53125 L 3.421875 -5.4375 C 3.421875 -3.894531 3.710938 -2.726562 4.296875 -1.9375 C 4.878906 -1.144531 5.738281 -0.75 6.875 -0.75 C 7.75 -0.75 8.460938 -0.976562 9.015625 -1.4375 C 9.578125 -1.894531 9.96875 -2.570312 10.1875 -3.46875 L 11.78125 -3.46875 C 11.46875 -2.21875 10.882812 -1.273438 10.03125 -0.640625 C 9.175781 -0.00390625 8.054688 0.3125 6.671875 0.3125 C 4.992188 0.3125 3.644531 -0.238281 2.625 -1.34375 C 1.601562 -2.445312 1.09375 -3.914062 1.09375 -5.75 C 1.09375 -7.5625 1.59375 -9.019531 2.59375 -10.125 C 3.601562 -11.226562 4.921875 -11.78125 6.546875 -11.78125 C 8.273438 -11.78125 9.601562 -11.242188 10.53125 -10.171875 C 11.457031 -9.109375 11.941406 -7.5625 11.984375 -5.53125 Z M 9.640625 -6.671875 C 9.597656 -8.003906 9.316406 -9.007812 8.796875 -9.6875 C 8.273438 -10.375 7.523438 -10.71875 6.546875 -10.71875 C 5.628906 -10.71875 4.90625 -10.375 4.375 -9.6875 C 3.851562 -9.007812 3.535156 -8.003906 3.421875 -6.671875 Z M 9.640625 -6.671875 "/></g></g></g><g fill="#000000" fill-opacity="1"><g transform="translate(158.694483, 51.795505)"><g><path d="M 0.90625 0 L 0.90625 -1.140625 L 2.703125 -1.140625 L 2.703125 -10.328125 L 0.796875 -10.328125 L 0.796875 -11.46875 L 4.6875 -11.46875 L 4.6875 -9.4375 C 5.050781 -10.207031 5.523438 -10.789062 6.109375 -11.1875 C 6.703125 -11.582031 7.382812 -11.78125 8.15625 -11.78125 C 9.425781 -11.78125 10.359375 -11.414062 10.953125 -10.6875 C 11.554688 -9.96875 11.859375 -8.835938 11.859375 -7.296875 L 11.859375 -1.140625 L 13.625 -1.140625 L 13.625 0 L 8.140625 0 L 8.140625 -1.140625 L 9.859375 -1.140625 L 9.859375 -6.671875 C 9.859375 -8.078125 9.679688 -9.039062 9.328125 -9.5625 C 8.984375 -10.082031 8.378906 -10.34375 7.515625 -10.34375 C 6.585938 -10.34375 5.882812 -10.003906 5.40625 -9.328125 C 4.925781 -8.660156 4.6875 -7.679688 4.6875 -6.390625 L 4.6875 -1.140625 L 6.40625 -1.140625 L 6.40625 0 Z M 0.90625 0 "/></g></g></g><g fill="#000000" fill-opacity="1"><g transform="translate(30.956767, 83.20201)"><g><path d="M 6.375 -0.203125 L 6.34375 0.046875 L 5.6875 0 L 4.9375 0 L 3.828125 0.03125 L 3.78125 -0.234375 L 4.578125 -0.40625 C 4.523438 -0.582031 4.460938 -0.796875 4.390625 -1.046875 C 4.316406 -1.304688 4.226562 -1.59375 4.125 -1.90625 L 3.9375 -2.484375 C 3.863281 -2.492188 3.78125 -2.5 3.6875 -2.5 C 3.601562 -2.5 3.488281 -2.5 3.34375 -2.5 L 2.53125 -2.5 C 2.40625 -2.5 2.296875 -2.492188 2.203125 -2.484375 C 2.117188 -2.484375 2.050781 -2.484375 2 -2.484375 L 1.734375 -1.8125 C 1.648438 -1.59375 1.570312 -1.382812 1.5 -1.1875 C 1.4375 -0.988281 1.378906 -0.8125 1.328125 -0.65625 C 1.304688 -0.507812 1.375 -0.40625 1.53125 -0.34375 C 1.6875 -0.289062 1.882812 -0.25 2.125 -0.21875 L 2.078125 0.03125 L 1.125 -0.015625 L 1.125 0 L 1.09375 0 L 0.109375 0.03125 L 0.0625 -0.234375 L 0.75 -0.40625 C 0.820312 -0.582031 0.910156 -0.796875 1.015625 -1.046875 C 1.128906 -1.304688 1.238281 -1.578125 1.34375 -1.859375 L 2.90625 -5.921875 L 3.734375 -5.984375 L 5.203125 -1.90625 C 5.285156 -1.675781 5.363281 -1.457031 5.4375 -1.25 C 5.519531 -1.039062 5.597656 -0.851562 5.671875 -0.6875 C 5.753906 -0.519531 5.847656 -0.40625 5.953125 -0.34375 C 6.066406 -0.289062 6.207031 -0.242188 6.375 -0.203125 Z M 3.359375 -2.921875 L 3.78125 -2.921875 L 3.015625 -5.15625 L 2.15625 -2.921875 Z M 3.359375 -2.921875 "/></g></g></g><g fill="#000000" fill-opacity="1"><g transform="translate(42.361932, 83.20201)"><g><path d="M 2.171875 -7.625 L 1.796875 -6.8125 L 0.953125 -7.234375 L 1.34375 -8.015625 Z M 2.203125 -0.671875 C 2.210938 -0.554688 2.257812 -0.46875 2.34375 -0.40625 C 2.425781 -0.351562 2.523438 -0.3125 2.640625 -0.28125 C 2.765625 -0.25 2.878906 -0.222656 2.984375 -0.203125 L 2.9375 0.046875 L 1.9375 0 L 1.484375 0 L 0.34375 0.03125 L 0.3125 -0.234375 L 1.09375 -0.40625 C 1.101562 -0.59375 1.113281 -0.816406 1.125 -1.078125 C 1.132812 -1.347656 1.140625 -1.625 1.140625 -1.90625 L 1.140625 -4.03125 C 1.140625 -4.238281 1.132812 -4.453125 1.125 -4.671875 C 1.125 -4.898438 1.117188 -5.097656 1.109375 -5.265625 C 1.097656 -5.378906 1.050781 -5.46875 0.96875 -5.53125 C 0.882812 -5.59375 0.785156 -5.632812 0.671875 -5.65625 C 0.554688 -5.6875 0.441406 -5.710938 0.328125 -5.734375 L 0.359375 -5.984375 L 1.390625 -5.9375 L 1.84375 -5.9375 L 2.96875 -5.96875 L 3 -5.703125 L 2.21875 -5.53125 C 2.207031 -5.34375 2.195312 -5.113281 2.1875 -4.84375 C 2.175781 -4.570312 2.171875 -4.300781 2.171875 -4.03125 L 2.171875 -1.90625 C 2.171875 -1.6875 2.171875 -1.46875 2.171875 -1.25 C 2.179688 -1.03125 2.191406 -0.835938 2.203125 -0.671875 Z M 2.203125 -0.671875 "/></g></g></g><g fill="#000000" fill-opacity="1"><g transform="translate(50.632111, 83.20201)"><g><path d="M 4.34375 -1.484375 L 4.71875 -1.390625 L 4.28125 0.09375 C 4.125 0.0703125 3.972656 0.0507812 3.828125 0.03125 C 3.679688 0.0195312 3.503906 0.0078125 3.296875 0 L 1.46875 0 L 0.34375 0.03125 L 0.3125 -0.234375 L 1.09375 -0.40625 C 1.101562 -0.59375 1.113281 -0.816406 1.125 -1.078125 C 1.132812 -1.347656 1.140625 -1.625 1.140625 -1.90625 L 1.140625 -4.03125 C 1.140625 -4.238281 1.132812 -4.453125 1.125 -4.671875 C 1.125 -4.890625 1.125 -5.085938 1.125 -5.265625 C 1.09375 -5.429688 0.992188 -5.539062 0.828125 -5.59375 C 0.660156 -5.65625 0.492188 -5.703125 0.328125 -5.734375 L 0.375 -5.984375 L 1.375 -5.9375 L 1.84375 -5.9375 L 2.96875 -5.96875 L 3 -5.703125 L 2.21875 -5.53125 C 2.207031 -5.3125 2.195312 -5.039062 2.1875 -4.71875 C 2.175781 -4.394531 2.171875 -4.078125 2.171875 -3.765625 L 2.171875 -1.90625 C 2.171875 -1.625 2.171875 -1.332031 2.171875 -1.03125 C 2.179688 -0.726562 2.1875 -0.492188 2.1875 -0.328125 L 3.8125 -0.375 Z M 4.34375 -1.484375 "/></g></g></g><g fill="#000000" fill-opacity="1"><g transform="translate(60.383766, 83.20201)"><g><path d="M 4.65625 -1.4375 L 5.03125 -1.328125 L 4.625 0.09375 C 4.445312 0.0703125 4.285156 0.0507812 4.140625 0.03125 C 4.003906 0.0195312 3.835938 0.0078125 3.640625 0 L 1.46875 0 L 0.34375 0.03125 L 0.3125 -0.234375 L 1.09375 -0.40625 C 1.101562 -0.601562 1.113281 -0.832031 1.125 -1.09375 C 1.132812 -1.363281 1.140625 -1.632812 1.140625 -1.90625 L 1.140625 -4.03125 C 1.140625 -4.238281 1.140625 -4.453125 1.140625 -4.671875 C 1.140625 -4.890625 1.132812 -5.085938 1.125 -5.265625 C 1.101562 -5.378906 1.050781 -5.460938 0.96875 -5.515625 C 0.882812 -5.578125 0.785156 -5.625 0.671875 -5.65625 C 0.554688 -5.6875 0.441406 -5.710938 0.328125 -5.734375 L 0.375 -5.984375 L 1.515625 -5.9375 L 3.4375 -5.9375 C 3.625 -5.9375 3.8125 -5.945312 4 -5.96875 C 4.1875 -5.988281 4.335938 -6.007812 4.453125 -6.03125 L 4.640625 -4.6875 L 4.296875 -4.59375 L 3.984375 -5.5625 C 3.796875 -5.570312 3.546875 -5.578125 3.234375 -5.578125 C 2.921875 -5.585938 2.570312 -5.59375 2.1875 -5.59375 L 2.1875 -3.109375 C 2.476562 -3.117188 2.722656 -3.125 2.921875 -3.125 C 3.117188 -3.132812 3.28125 -3.140625 3.40625 -3.140625 C 3.53125 -3.160156 3.609375 -3.234375 3.640625 -3.359375 C 3.679688 -3.484375 3.703125 -3.585938 3.703125 -3.671875 L 4 -3.640625 L 3.984375 -3.0625 L 4.015625 -2.25 L 3.734375 -2.203125 L 3.609375 -2.734375 C 3.484375 -2.742188 3.300781 -2.75 3.0625 -2.75 C 2.832031 -2.757812 2.539062 -2.769531 2.1875 -2.78125 L 2.1875 -0.328125 L 4.15625 -0.375 Z M 4.65625 -1.4375 "/></g></g></g><g fill="#000000" fill-opacity="1"><g transform="translate(70.622875, 83.20201)"><g/></g></g><g fill="#000000" fill-opacity="1"><g transform="translate(78.109315, 83.20201)"><g><path d="M 3.203125 -5.984375 C 3.804688 -5.984375 4.34375 -5.875 4.8125 -5.65625 C 5.28125 -5.4375 5.644531 -5.109375 5.90625 -4.671875 C 6.175781 -4.234375 6.3125 -3.691406 6.3125 -3.046875 C 6.3125 -2.429688 6.191406 -1.890625 5.953125 -1.421875 C 5.722656 -0.960938 5.375 -0.601562 4.90625 -0.34375 C 4.445312 -0.0820312 3.882812 0.046875 3.21875 0.046875 C 3.03125 0.046875 2.800781 0.0351562 2.53125 0.015625 C 2.257812 0.00390625 1.992188 0 1.734375 0 L 1.46875 0 L 0.34375 0.03125 L 0.3125 -0.234375 L 1.09375 -0.40625 C 1.101562 -0.625 1.113281 -0.863281 1.125 -1.125 C 1.132812 -1.382812 1.140625 -1.644531 1.140625 -1.90625 L 1.140625 -4.03125 C 1.140625 -4.238281 1.132812 -4.453125 1.125 -4.671875 C 1.125 -4.898438 1.113281 -5.097656 1.09375 -5.265625 C 1.082031 -5.378906 1.035156 -5.460938 0.953125 -5.515625 C 0.867188 -5.578125 0.769531 -5.625 0.65625 -5.65625 C 0.539062 -5.6875 0.425781 -5.710938 0.3125 -5.734375 L 0.359375 -5.984375 L 1.59375 -5.9375 C 1.71875 -5.9375 1.878906 -5.941406 2.078125 -5.953125 C 2.273438 -5.960938 2.476562 -5.96875 2.6875 -5.96875 C 2.894531 -5.976562 3.066406 -5.984375 3.203125 -5.984375 Z M 3.125 -0.296875 C 3.5 -0.296875 3.84375 -0.394531 4.15625 -0.59375 C 4.476562 -0.800781 4.734375 -1.097656 4.921875 -1.484375 C 5.117188 -1.878906 5.21875 -2.359375 5.21875 -2.921875 C 5.21875 -3.242188 5.179688 -3.566406 5.109375 -3.890625 C 5.046875 -4.210938 4.929688 -4.503906 4.765625 -4.765625 C 4.609375 -5.023438 4.394531 -5.234375 4.125 -5.390625 C 3.851562 -5.546875 3.519531 -5.625 3.125 -5.625 C 2.90625 -5.625 2.707031 -5.625 2.53125 -5.625 C 2.351562 -5.625 2.226562 -5.617188 2.15625 -5.609375 L 2.15625 -1.90625 C 2.15625 -1.613281 2.160156 -1.316406 2.171875 -1.015625 C 2.191406 -0.722656 2.203125 -0.488281 2.203125 -0.3125 C 2.367188 -0.3125 2.492188 -0.3125 2.578125 -0.3125 C 2.671875 -0.3125 2.753906 -0.304688 2.828125 -0.296875 C 2.910156 -0.296875 3.007812 -0.296875 3.125 -0.296875 Z M 3.125 -0.296875 "/></g></g></g><g fill="#000000" fill-opacity="1"><g transform="translate(89.629173, 83.20201)"><g><path d="M 6.375 -0.203125 L 6.34375 0.046875 L 5.6875 0 L 4.9375 0 L 3.828125 0.03125 L 3.78125 -0.234375 L 4.578125 -0.40625 C 4.523438 -0.582031 4.460938 -0.796875 4.390625 -1.046875 C 4.316406 -1.304688 4.226562 -1.59375 4.125 -1.90625 L 3.9375 -2.484375 C 3.863281 -2.492188 3.78125 -2.5 3.6875 -2.5 C 3.601562 -2.5 3.488281 -2.5 3.34375 -2.5 L 2.53125 -2.5 C 2.40625 -2.5 2.296875 -2.492188 2.203125 -2.484375 C 2.117188 -2.484375 2.050781 -2.484375 2 -2.484375 L 1.734375 -1.8125 C 1.648438 -1.59375 1.570312 -1.382812 1.5 -1.1875 C 1.4375 -0.988281 1.378906 -0.8125 1.328125 -0.65625 C 1.304688 -0.507812 1.375 -0.40625 1.53125 -0.34375 C 1.6875 -0.289062 1.882812 -0.25 2.125 -0.21875 L 2.078125 0.03125 L 1.125 -0.015625 L 1.125 0 L 1.09375 0 L 0.109375 0.03125 L 0.0625 -0.234375 L 0.75 -0.40625 C 0.820312 -0.582031 0.910156 -0.796875 1.015625 -1.046875 C 1.128906 -1.304688 1.238281 -1.578125 1.34375 -1.859375 L 2.90625 -5.921875 L 3.734375 -5.984375 L 5.203125 -1.90625 C 5.285156 -1.675781 5.363281 -1.457031 5.4375 -1.25 C 5.519531 -1.039062 5.597656 -0.851562 5.671875 -0.6875 C 5.753906 -0.519531 5.847656 -0.40625 5.953125 -0.34375 C 6.066406 -0.289062 6.207031 -0.242188 6.375 -0.203125 Z M 3.359375 -2.921875 L 3.78125 -2.921875 L 3.015625 -5.15625 L 2.15625 -2.921875 Z M 3.359375 -2.921875 "/></g></g></g><g fill="#000000" fill-opacity="1"><g transform="translate(101.034339, 83.20201)"><g><path d="M 5.875 -3.890625 L 5.875 -1.78125 C 5.875 -1.238281 5.878906 -0.820312 5.890625 -0.53125 C 5.910156 -0.238281 5.921875 -0.0625 5.921875 0 L 5.453125 0 C 5.453125 0 5.382812 -0.0703125 5.25 -0.21875 C 5.125 -0.375 4.957031 -0.578125 4.75 -0.828125 C 4.539062 -1.078125 4.304688 -1.351562 4.046875 -1.65625 C 3.785156 -1.96875 3.519531 -2.28125 3.25 -2.59375 C 2.976562 -2.90625 2.71875 -3.203125 2.46875 -3.484375 C 2.226562 -3.765625 2.019531 -4 1.84375 -4.1875 C 1.664062 -4.382812 1.539062 -4.515625 1.46875 -4.578125 L 1.515625 -2.25 C 1.515625 -1.957031 1.519531 -1.671875 1.53125 -1.390625 C 1.539062 -1.109375 1.550781 -0.867188 1.5625 -0.671875 C 1.570312 -0.554688 1.617188 -0.46875 1.703125 -0.40625 C 1.785156 -0.34375 1.882812 -0.296875 2 -0.265625 C 2.125 -0.242188 2.238281 -0.21875 2.34375 -0.1875 L 2.296875 0.0625 L 1.484375 0 L 1.125 0 L 0.34375 0.03125 L 0.3125 -0.234375 L 1.09375 -0.40625 C 1.09375 -0.632812 1.097656 -0.890625 1.109375 -1.171875 C 1.117188 -1.460938 1.125 -1.757812 1.125 -2.0625 L 1.125 -4.03125 C 1.125 -4.28125 1.117188 -4.507812 1.109375 -4.71875 C 1.109375 -4.9375 1.101562 -5.117188 1.09375 -5.265625 L 1.09375 -5.28125 C 1.09375 -5.394531 1.050781 -5.476562 0.96875 -5.53125 C 0.882812 -5.59375 0.78125 -5.632812 0.65625 -5.65625 C 0.539062 -5.6875 0.429688 -5.710938 0.328125 -5.734375 L 0.359375 -5.984375 L 1.375 -5.9375 L 1.6875 -5.9375 C 1.800781 -5.800781 1.957031 -5.601562 2.15625 -5.34375 C 2.363281 -5.09375 2.597656 -4.8125 2.859375 -4.5 C 3.117188 -4.195312 3.382812 -3.878906 3.65625 -3.546875 C 3.9375 -3.222656 4.203125 -2.914062 4.453125 -2.625 C 4.710938 -2.34375 4.929688 -2.097656 5.109375 -1.890625 C 5.296875 -1.679688 5.429688 -1.539062 5.515625 -1.46875 L 5.46875 -3.6875 C 5.457031 -4 5.445312 -4.289062 5.4375 -4.5625 C 5.4375 -4.84375 5.4375 -5.078125 5.4375 -5.265625 C 5.414062 -5.378906 5.363281 -5.46875 5.28125 -5.53125 C 5.195312 -5.59375 5.097656 -5.640625 4.984375 -5.671875 C 4.867188 -5.703125 4.753906 -5.726562 4.640625 -5.75 L 4.6875 -6 L 5.5 -5.9375 L 5.828125 -5.9375 L 6.671875 -5.96875 L 6.703125 -5.703125 L 5.90625 -5.53125 C 5.90625 -5.3125 5.898438 -5.054688 5.890625 -4.765625 C 5.878906 -4.472656 5.875 -4.179688 5.875 -3.890625 Z M 5.875 -3.890625 "/></g></g></g><g fill="#000000" fill-opacity="1"><g transform="translate(112.850492, 83.20201)"><g><path d="M 2.203125 -0.671875 C 2.210938 -0.554688 2.257812 -0.46875 2.34375 -0.40625 C 2.425781 -0.351562 2.523438 -0.3125 2.640625 -0.28125 C 2.765625 -0.25 2.878906 -0.222656 2.984375 -0.203125 L 2.9375 0.046875 L 1.9375 0 L 1.484375 0 L 0.34375 0.03125 L 0.3125 -0.234375 L 1.09375 -0.40625 C 1.101562 -0.59375 1.113281 -0.816406 1.125 -1.078125 C 1.132812 -1.347656 1.140625 -1.625 1.140625 -1.90625 L 1.140625 -4.03125 C 1.140625 -4.238281 1.132812 -4.453125 1.125 -4.671875 C 1.125 -4.898438 1.117188 -5.097656 1.109375 -5.265625 C 1.097656 -5.378906 1.050781 -5.46875 0.96875 -5.53125 C 0.882812 -5.59375 0.785156 -5.632812 0.671875 -5.65625 C 0.554688 -5.6875 0.441406 -5.710938 0.328125 -5.734375 L 0.359375 -5.984375 L 1.390625 -5.9375 L 1.84375 -5.9375 L 2.96875 -5.96875 L 3 -5.703125 L 2.21875 -5.53125 C 2.207031 -5.34375 2.195312 -5.113281 2.1875 -4.84375 C 2.175781 -4.570312 2.171875 -4.300781 2.171875 -4.03125 L 2.171875 -1.90625 C 2.171875 -1.6875 2.171875 -1.46875 2.171875 -1.25 C 2.179688 -1.03125 2.191406 -0.835938 2.203125 -0.671875 Z M 2.203125 -0.671875 "/></g></g></g><g fill="#000000" fill-opacity="1"><g transform="translate(121.120676, 83.20201)"><g><path d="M 3.828125 -1.609375 C 3.828125 -1.253906 3.742188 -0.945312 3.578125 -0.6875 C 3.421875 -0.4375 3.203125 -0.238281 2.921875 -0.09375 C 2.648438 0.0390625 2.347656 0.109375 2.015625 0.109375 L 1.859375 0.578125 L 2.125 0.5625 C 2.332031 0.539062 2.507812 0.582031 2.65625 0.6875 C 2.8125 0.800781 2.890625 0.960938 2.890625 1.171875 C 2.890625 1.367188 2.820312 1.523438 2.6875 1.640625 C 2.5625 1.753906 2.410156 1.832031 2.234375 1.875 C 2.066406 1.925781 1.914062 1.953125 1.78125 1.953125 C 1.5625 1.953125 1.375 1.929688 1.21875 1.890625 C 1.070312 1.859375 1 1.84375 1 1.84375 L 1.171875 1.46875 C 1.171875 1.46875 1.226562 1.488281 1.34375 1.53125 C 1.457031 1.570312 1.582031 1.59375 1.71875 1.59375 C 1.863281 1.59375 2 1.5625 2.125 1.5 C 2.25 1.445312 2.3125 1.34375 2.3125 1.1875 C 2.300781 1.050781 2.238281 0.957031 2.125 0.90625 C 2.019531 0.863281 1.894531 0.847656 1.75 0.859375 L 1.390625 0.90625 L 1.65625 0.109375 C 1.414062 0.0859375 1.191406 0.046875 0.984375 -0.015625 C 0.785156 -0.0859375 0.601562 -0.179688 0.4375 -0.296875 L 0.3125 -1.390625 L 0.671875 -1.59375 L 0.96875 -0.53125 C 1.070312 -0.425781 1.203125 -0.351562 1.359375 -0.3125 C 1.523438 -0.28125 1.707031 -0.265625 1.90625 -0.265625 C 2.21875 -0.265625 2.460938 -0.359375 2.640625 -0.546875 C 2.828125 -0.734375 2.921875 -0.953125 2.921875 -1.203125 C 2.921875 -1.492188 2.804688 -1.75 2.578125 -1.96875 C 2.359375 -2.1875 2.097656 -2.414062 1.796875 -2.65625 C 1.585938 -2.820312 1.378906 -2.984375 1.171875 -3.140625 C 0.972656 -3.296875 0.8125 -3.484375 0.6875 -3.703125 C 0.5625 -3.929688 0.5 -4.222656 0.5 -4.578125 C 0.5 -4.867188 0.570312 -5.125 0.71875 -5.34375 C 0.863281 -5.570312 1.066406 -5.75 1.328125 -5.875 C 1.597656 -6.007812 1.90625 -6.078125 2.25 -6.078125 C 2.445312 -6.078125 2.640625 -6.0625 2.828125 -6.03125 C 3.023438 -6.007812 3.210938 -5.976562 3.390625 -5.9375 L 3.5625 -4.734375 L 3.21875 -4.640625 L 2.890625 -5.609375 C 2.796875 -5.640625 2.6875 -5.664062 2.5625 -5.6875 C 2.445312 -5.71875 2.304688 -5.726562 2.140625 -5.71875 C 1.890625 -5.707031 1.695312 -5.625 1.5625 -5.46875 C 1.4375 -5.3125 1.375 -5.128906 1.375 -4.921875 C 1.375 -4.734375 1.429688 -4.550781 1.546875 -4.375 C 1.660156 -4.207031 1.800781 -4.050781 1.96875 -3.90625 C 2.144531 -3.757812 2.328125 -3.628906 2.515625 -3.515625 C 2.734375 -3.378906 2.941406 -3.222656 3.140625 -3.046875 C 3.347656 -2.878906 3.515625 -2.679688 3.640625 -2.453125 C 3.765625 -2.222656 3.828125 -1.941406 3.828125 -1.609375 Z M 3.828125 -1.609375 "/></g></g></g><g fill="#000000" fill-opacity="1"><g transform="translate(130.20328, 83.20201)"><g><path d="M 7.359375 -0.671875 C 7.378906 -0.503906 7.472656 -0.394531 7.640625 -0.34375 C 7.804688 -0.289062 7.972656 -0.242188 8.140625 -0.203125 L 8.09375 0.046875 L 7.078125 0 L 6.5625 0 L 5.453125 0.03125 L 5.40625 -0.234375 L 6.203125 -0.40625 C 6.203125 -0.550781 6.203125 -0.722656 6.203125 -0.921875 C 6.203125 -1.117188 6.191406 -1.335938 6.171875 -1.578125 C 6.171875 -1.710938 6.164062 -1.894531 6.15625 -2.125 C 6.144531 -2.363281 6.128906 -2.617188 6.109375 -2.890625 C 6.097656 -3.171875 6.082031 -3.445312 6.0625 -3.71875 C 6.050781 -3.988281 6.035156 -4.238281 6.015625 -4.46875 C 5.992188 -4.695312 5.972656 -4.878906 5.953125 -5.015625 L 4.046875 -1.21875 L 3.640625 -1.21875 C 3.546875 -1.414062 3.4375 -1.644531 3.3125 -1.90625 C 3.1875 -2.175781 3.054688 -2.453125 2.921875 -2.734375 C 2.785156 -3.023438 2.65625 -3.300781 2.53125 -3.5625 C 2.414062 -3.820312 2.3125 -4.050781 2.21875 -4.25 C 2.125 -4.445312 2.0625 -4.585938 2.03125 -4.671875 L 1.71875 -5.390625 L 1.46875 -1.90625 C 1.457031 -1.664062 1.445312 -1.441406 1.4375 -1.234375 C 1.4375 -1.023438 1.429688 -0.835938 1.421875 -0.671875 C 1.421875 -0.578125 1.460938 -0.492188 1.546875 -0.421875 C 1.628906 -0.359375 1.726562 -0.3125 1.84375 -0.28125 C 1.96875 -0.25 2.085938 -0.222656 2.203125 -0.203125 L 2.15625 0.046875 L 1.21875 0 L 1.1875 0 L 0.1875 0.03125 L 0.15625 -0.234375 L 0.9375 -0.421875 C 0.957031 -0.648438 0.984375 -0.929688 1.015625 -1.265625 C 1.054688 -1.597656 1.09375 -1.921875 1.125 -2.234375 L 1.28125 -4.03125 C 1.300781 -4.289062 1.316406 -4.523438 1.328125 -4.734375 C 1.347656 -4.953125 1.363281 -5.132812 1.375 -5.28125 C 1.375 -5.394531 1.332031 -5.476562 1.25 -5.53125 C 1.164062 -5.59375 1.0625 -5.640625 0.9375 -5.671875 C 0.820312 -5.703125 0.707031 -5.726562 0.59375 -5.75 L 0.625 -6 L 1.625 -5.9375 L 2.484375 -5.9375 C 2.578125 -5.738281 2.703125 -5.460938 2.859375 -5.109375 C 3.015625 -4.753906 3.195312 -4.347656 3.40625 -3.890625 L 4.15625 -2.3125 L 5 -3.9375 C 5.175781 -4.257812 5.335938 -4.566406 5.484375 -4.859375 C 5.628906 -5.148438 5.742188 -5.390625 5.828125 -5.578125 C 5.921875 -5.773438 5.976562 -5.894531 6 -5.9375 L 6.625 -5.9375 L 7.734375 -5.96875 L 7.78125 -5.703125 L 6.984375 -5.515625 L 7.234375 -1.890625 C 7.253906 -1.648438 7.273438 -1.425781 7.296875 -1.21875 C 7.316406 -1.007812 7.335938 -0.828125 7.359375 -0.671875 Z M 7.359375 -0.671875 "/></g></g></g><g fill="#000000" fill-opacity="1"><g transform="translate(143.443563, 83.20201)"><g><path d="M 6.375 -0.203125 L 6.34375 0.046875 L 5.6875 0 L 4.9375 0 L 3.828125 0.03125 L 3.78125 -0.234375 L 4.578125 -0.40625 C 4.523438 -0.582031 4.460938 -0.796875 4.390625 -1.046875 C 4.316406 -1.304688 4.226562 -1.59375 4.125 -1.90625 L 3.9375 -2.484375 C 3.863281 -2.492188 3.78125 -2.5 3.6875 -2.5 C 3.601562 -2.5 3.488281 -2.5 3.34375 -2.5 L 2.53125 -2.5 C 2.40625 -2.5 2.296875 -2.492188 2.203125 -2.484375 C 2.117188 -2.484375 2.050781 -2.484375 2 -2.484375 L 1.734375 -1.8125 C 1.648438 -1.59375 1.570312 -1.382812 1.5 -1.1875 C 1.4375 -0.988281 1.378906 -0.8125 1.328125 -0.65625 C 1.304688 -0.507812 1.375 -0.40625 1.53125 -0.34375 C 1.6875 -0.289062 1.882812 -0.25 2.125 -0.21875 L 2.078125 0.03125 L 1.125 -0.015625 L 1.125 0 L 1.09375 0 L 0.109375 0.03125 L 0.0625 -0.234375 L 0.75 -0.40625 C 0.820312 -0.582031 0.910156 -0.796875 1.015625 -1.046875 C 1.128906 -1.304688 1.238281 -1.578125 1.34375 -1.859375 L 2.90625 -5.921875 L 3.734375 -5.984375 L 5.203125 -1.90625 C 5.285156 -1.675781 5.363281 -1.457031 5.4375 -1.25 C 5.519531 -1.039062 5.597656 -0.851562 5.671875 -0.6875 C 5.753906 -0.519531 5.847656 -0.40625 5.953125 -0.34375 C 6.066406 -0.289062 6.207031 -0.242188 6.375 -0.203125 Z M 3.359375 -2.921875 L 3.78125 -2.921875 L 3.015625 -5.15625 L 2.15625 -2.921875 Z M 3.359375 -2.921875 "/></g></g></g><g fill="#000000" fill-opacity="1"><g transform="translate(154.848723, 83.20201)"><g><path d="M 5.875 -3.890625 L 5.875 -1.78125 C 5.875 -1.238281 5.878906 -0.820312 5.890625 -0.53125 C 5.910156 -0.238281 5.921875 -0.0625 5.921875 0 L 5.453125 0 C 5.453125 0 5.382812 -0.0703125 5.25 -0.21875 C 5.125 -0.375 4.957031 -0.578125 4.75 -0.828125 C 4.539062 -1.078125 4.304688 -1.351562 4.046875 -1.65625 C 3.785156 -1.96875 3.519531 -2.28125 3.25 -2.59375 C 2.976562 -2.90625 2.71875 -3.203125 2.46875 -3.484375 C 2.226562 -3.765625 2.019531 -4 1.84375 -4.1875 C 1.664062 -4.382812 1.539062 -4.515625 1.46875 -4.578125 L 1.515625 -2.25 C 1.515625 -1.957031 1.519531 -1.671875 1.53125 -1.390625 C 1.539062 -1.109375 1.550781 -0.867188 1.5625 -0.671875 C 1.570312 -0.554688 1.617188 -0.46875 1.703125 -0.40625 C 1.785156 -0.34375 1.882812 -0.296875 2 -0.265625 C 2.125 -0.242188 2.238281 -0.21875 2.34375 -0.1875 L 2.296875 0.0625 L 1.484375 0 L 1.125 0 L 0.34375 0.03125 L 0.3125 -0.234375 L 1.09375 -0.40625 C 1.09375 -0.632812 1.097656 -0.890625 1.109375 -1.171875 C 1.117188 -1.460938 1.125 -1.757812 1.125 -2.0625 L 1.125 -4.03125 C 1.125 -4.28125 1.117188 -4.507812 1.109375 -4.71875 C 1.109375 -4.9375 1.101562 -5.117188 1.09375 -5.265625 L 1.09375 -5.28125 C 1.09375 -5.394531 1.050781 -5.476562 0.96875 -5.53125 C 0.882812 -5.59375 0.78125 -5.632812 0.65625 -5.65625 C 0.539062 -5.6875 0.429688 -5.710938 0.328125 -5.734375 L 0.359375 -5.984375 L 1.375 -5.9375 L 1.6875 -5.9375 C 1.800781 -5.800781 1.957031 -5.601562 2.15625 -5.34375 C 2.363281 -5.09375 2.597656 -4.8125 2.859375 -4.5 C 3.117188 -4.195312 3.382812 -3.878906 3.65625 -3.546875 C 3.9375 -3.222656 4.203125 -2.914062 4.453125 -2.625 C 4.710938 -2.34375 4.929688 -2.097656 5.109375 -1.890625 C 5.296875 -1.679688 5.429688 -1.539062 5.515625 -1.46875 L 5.46875 -3.6875 C 5.457031 -4 5.445312 -4.289062 5.4375 -4.5625 C 5.4375 -4.84375 5.4375 -5.078125 5.4375 -5.265625 C 5.414062 -5.378906 5.363281 -5.46875 5.28125 -5.53125 C 5.195312 -5.59375 5.097656 -5.640625 4.984375 -5.671875 C 4.867188 -5.703125 4.753906 -5.726562 4.640625 -5.75 L 4.6875 -6 L 5.5 -5.9375 L 5.828125 -5.9375 L 6.671875 -5.96875 L 6.703125 -5.703125 L 5.90625 -5.53125 C 5.90625 -5.3125 5.898438 -5.054688 5.890625 -4.765625 C 5.878906 -4.472656 5.875 -4.179688 5.875 -3.890625 Z M 5.875 -3.890625 "/></g></g></g><g fill="#000000" fill-opacity="1"><g transform="translate(166.664871, 83.20201)"><g><path d="M 2.203125 -0.671875 C 2.210938 -0.554688 2.257812 -0.46875 2.34375 -0.40625 C 2.425781 -0.351562 2.523438 -0.3125 2.640625 -0.28125 C 2.765625 -0.25 2.878906 -0.222656 2.984375 -0.203125 L 2.9375 0.046875 L 1.9375 0 L 1.484375 0 L 0.34375 0.03125 L 0.3125 -0.234375 L 1.09375 -0.40625 C 1.101562 -0.59375 1.113281 -0.816406 1.125 -1.078125 C 1.132812 -1.347656 1.140625 -1.625 1.140625 -1.90625 L 1.140625 -4.03125 C 1.140625 -4.238281 1.132812 -4.453125 1.125 -4.671875 C 1.125 -4.898438 1.117188 -5.097656 1.109375 -5.265625 C 1.097656 -5.378906 1.050781 -5.46875 0.96875 -5.53125 C 0.882812 -5.59375 0.785156 -5.632812 0.671875 -5.65625 C 0.554688 -5.6875 0.441406 -5.710938 0.328125 -5.734375 L 0.359375 -5.984375 L 1.390625 -5.9375 L 1.84375 -5.9375 L 2.96875 -5.96875 L 3 -5.703125 L 2.21875 -5.53125 C 2.207031 -5.34375 2.195312 -5.113281 2.1875 -4.84375 C 2.175781 -4.570312 2.171875 -4.300781 2.171875 -4.03125 L 2.171875 -1.90625 C 2.171875 -1.6875 2.171875 -1.46875 2.171875 -1.25 C 2.179688 -1.03125 2.191406 -0.835938 2.203125 -0.671875 Z M 2.203125 -0.671875 "/></g></g></g><path stroke-linecap="round" transform="matrix(0.275249, 0, 0, 0.275249, 4.846, 64.428549)" fill="none" stroke-linejoin="miter" d="M 0.999433 0.997555 L 693.865427 0.997555 " stroke="#000000" stroke-width="2" stroke-opacity="1" stroke-miterlimit="4"/><g clip-path="url(#86602741c4)"><g mask="url(#7dfbe49adf)"><g transform="matrix(1, 0, 0, 1, 179, -0.000000000000001434)"><g clip-path="url(#858f16831c)"><g clip-path="url(#386cbdce5a)"><g clip-path="url(#cc37050e62)"><g clip-path="url(#043f687cfc)"><g clip-path="url(#496e5d4bfe)"><path fill="#000000" d="M 28.546875 51.386719 C 28.121094 51.535156 27.582031 51.253906 27.480469 50.75 L 27.472656 50.703125 L 27.503906 50.652344 C 27.722656 50.296875 28.164062 50.101562 28.601562 50.203125 L 28.617188 50.207031 L 28.644531 50.222656 C 29.203125 50.515625 29.421875 51.25 29.09375 51.832031 C 28.746094 52.398438 27.980469 52.597656 27.375 52.226562 L 27.3125 52.191406 L 27.261719 52.09375 C 26.953125 51.523438 26.878906 50.835938 27.042969 50.195312 L 27.105469 49.941406 L 27.378906 49.910156 C 28.371094 49.796875 29.402344 50.082031 30.214844 50.597656 C 31.050781 51.097656 31.71875 51.773438 32.3125 52.472656 C 33.492188 53.902344 34.417969 55.421875 35.664062 56.71875 C 38.109375 59.371094 41.207031 61.277344 44.097656 63.457031 C 46.957031 65.636719 49.773438 68.167969 51.527344 71.457031 C 53.265625 74.726562 54.152344 78.289062 54.828125 81.828125 L 54.734375 81.855469 C 53.515625 78.457031 52.464844 74.988281 50.667969 71.941406 C 48.898438 68.886719 46.351562 66.375 43.597656 64.066406 C 40.875 61.71875 38.039062 59.464844 35.398438 56.980469 C 34.050781 55.761719 32.90625 54.300781 31.707031 53.019531 C 30.523438 51.746094 29.113281 50.5625 27.453125 50.6875 L 27.789062 50.402344 C 27.652344 50.851562 27.691406 51.355469 27.875 51.796875 L 27.765625 51.667969 C 27.972656 51.855469 28.445312 51.796875 28.625 51.53125 C 28.820312 51.28125 28.734375 50.785156 28.433594 50.585938 L 28.480469 50.605469 C 28.25 50.507812 27.914062 50.589844 27.738281 50.8125 L 27.761719 50.714844 C 27.777344 51.03125 28.140625 51.351562 28.523438 51.292969 L 28.546875 51.386719 " fill-opacity="1" fill-rule="nonzero"/></g></g></g></g><g clip-path="url(#3683b25f6f)"><g clip-path="url(#33317472c4)"><g clip-path="url(#ae3792d6ee)"><path fill="#000000" d="M 23.097656 48.859375 C 22.527344 48.550781 21.988281 48.257812 21.457031 48.101562 C 20.925781 47.945312 20.410156 47.960938 19.9375 48.113281 C 19.464844 48.226562 19.007812 48.640625 18.972656 49.246094 C 18.925781 49.84375 19.273438 50.398438 19.738281 50.742188 C 20.699219 51.402344 21.847656 51.765625 22.992188 51.902344 C 24.140625 52.074219 25.324219 52.027344 26.570312 51.761719 L 26.617188 51.847656 C 25.609375 52.683594 24.214844 53.050781 22.875 52.933594 C 22.203125 52.871094 21.546875 52.652344 20.941406 52.359375 C 20.332031 52.078125 19.769531 51.664062 19.359375 51.113281 C 18.941406 50.570312 18.6875 49.914062 18.660156 49.246094 C 18.648438 48.910156 18.679688 48.550781 18.835938 48.210938 C 18.992188 47.871094 19.265625 47.566406 19.601562 47.378906 C 20.273438 47.003906 21.113281 47.085938 21.738281 47.40625 C 22.375 47.722656 22.832031 48.230469 23.167969 48.789062 L 23.097656 48.859375 " fill-opacity="1" fill-rule="nonzero"/></g></g></g><g clip-path="url(#88eaa3aeb1)"><g clip-path="url(#5b4d513ac4)"><g clip-path="url(#31fd290661)"><path fill="#000000" d="M 28.835938 50.25 C 28.089844 49.636719 27.460938 48.886719 26.953125 48.054688 C 26.445312 47.1875 26.101562 46.464844 25.390625 46.027344 C 24.65625 45.574219 23.75 45.167969 22.84375 44.984375 C 21.929688 44.796875 20.980469 44.820312 20.0625 44.925781 L 20.371094 44.515625 C 20.917969 45.953125 22.285156 46.980469 23.371094 48.269531 C 23.925781 48.882812 24.464844 49.574219 24.980469 50.179688 C 25.496094 50.765625 26.101562 51.339844 26.945312 51.285156 L 26.96875 51.378906 C 26.574219 51.570312 26.0625 51.554688 25.632812 51.394531 C 25.203125 51.234375 24.820312 50.984375 24.46875 50.710938 C 23.789062 50.136719 23.226562 49.5625 22.628906 48.957031 C 22.042969 48.355469 21.488281 47.742188 20.941406 47.058594 C 20.410156 46.386719 19.890625 45.601562 19.738281 44.683594 L 19.667969 44.238281 L 20.050781 44.265625 C 21.019531 44.347656 21.964844 44.527344 22.902344 44.699219 C 23.84375 44.898438 24.78125 44.992188 25.738281 45.363281 C 26.230469 45.542969 26.695312 45.949219 26.972656 46.386719 C 27.25 46.832031 27.445312 47.273438 27.628906 47.691406 C 28.019531 48.523438 28.449219 49.347656 28.910156 50.191406 L 28.835938 50.25 " fill-opacity="1" fill-rule="nonzero"/></g></g></g><g clip-path="url(#8026b79de2)"><g clip-path="url(#16b511c41e)"><g clip-path="url(#757f5b73d4)"><path fill="#000000" d="M 26.855469 50.277344 C 26.449219 50.132812 26.257812 49.980469 26.179688 49.722656 C 26.164062 49.585938 26.210938 49.386719 26.148438 49.257812 C 26.085938 49.128906 25.949219 49.066406 25.796875 49.027344 C 25.476562 48.980469 25.257812 48.871094 25.050781 48.738281 C 24.863281 48.558594 24.710938 48.347656 24.566406 47.957031 L 24.605469 47.867188 C 24.984375 47.679688 25.335938 47.734375 25.625 47.875 C 25.882812 48.054688 26.105469 48.308594 26.179688 48.65625 C 26.222656 48.824219 26.273438 48.972656 26.394531 49.0625 C 26.503906 49.15625 26.71875 49.183594 26.859375 49.285156 C 27.089844 49.5 27.15625 49.851562 26.949219 50.238281 L 26.855469 50.277344 " fill-opacity="1" fill-rule="nonzero"/></g></g></g><g clip-path="url(#83c7ca2f3a)"><g clip-path="url(#8583ba49dc)"><g clip-path="url(#638a258187)"><path fill="#000000" d="M 21.679688 50.253906 C 22.15625 50.210938 22.460938 50.28125 22.71875 50.488281 C 22.839844 50.613281 22.933594 50.820312 23.085938 50.90625 C 23.238281 51 23.421875 50.988281 23.605469 50.945312 C 23.972656 50.832031 24.285156 50.816406 24.601562 50.816406 C 24.917969 50.859375 25.230469 50.945312 25.636719 51.175781 L 25.65625 51.273438 C 25.375 51.652344 24.980469 51.808594 24.589844 51.847656 C 24.199219 51.84375 23.804688 51.738281 23.484375 51.464844 C 23.320312 51.335938 23.167969 51.226562 22.984375 51.203125 C 22.804688 51.167969 22.570312 51.246094 22.371094 51.21875 C 21.992188 51.121094 21.6875 50.8125 21.617188 50.328125 L 21.679688 50.253906 " fill-opacity="1" fill-rule="nonzero"/></g></g></g><g clip-path="url(#0f827ae6ac)"><g clip-path="url(#dbe0d4f327)"><g clip-path="url(#0974a0ab15)"><path fill="#000000" d="M 22.535156 13.503906 C 22.902344 12.5 23.398438 11.539062 24.007812 10.652344 C 24.3125 10.207031 24.644531 9.785156 25.007812 9.378906 C 25.359375 9.015625 25.726562 8.484375 26.425781 8.457031 C 26.757812 8.460938 27.085938 8.675781 27.238281 8.953125 C 27.398438 9.222656 27.460938 9.515625 27.492188 9.796875 C 27.550781 10.378906 27.46875 10.898438 27.457031 11.429688 L 27.285156 14.625 L 26.933594 21.015625 C 26.867188 22.070312 26.828125 23.164062 26.578125 24.25 C 26.351562 25.324219 25.839844 26.464844 24.863281 27.1875 L 24.402344 27.527344 L 24.25 26.96875 C 23.128906 22.933594 22.191406 18.84375 21.527344 14.707031 C 21.347656 13.691406 21.214844 12.601562 21.03125 11.640625 C 20.925781 11.171875 20.746094 10.726562 20.464844 10.476562 C 20.191406 10.226562 19.796875 10.195312 19.417969 10.382812 C 18.636719 10.765625 18.144531 11.730469 17.773438 12.648438 C 17.402344 13.59375 17.160156 14.605469 16.832031 15.613281 C 16.507812 16.613281 16.085938 17.660156 15.273438 18.4375 C 14.886719 18.832031 14.378906 19.121094 13.878906 19.3125 C 13.367188 19.503906 12.855469 19.621094 12.367188 19.773438 C 11.878906 19.917969 11.40625 20.109375 11.03125 20.414062 C 10.65625 20.722656 10.40625 21.15625 10.292969 21.628906 C 10.066406 22.597656 10.390625 23.632812 11.03125 24.402344 C 11.675781 25.1875 12.554688 25.757812 13.476562 26.210938 C 14.40625 26.660156 15.394531 26.984375 16.40625 27.203125 C 18.429688 27.648438 20.515625 27.734375 22.601562 27.808594 L 22.570312 28.171875 C 20.691406 27.964844 18.804688 27.808594 16.917969 27.703125 C 15.96875 27.652344 15.023438 27.613281 14.082031 27.589844 C 13.136719 27.574219 12.183594 27.511719 11.296875 27.636719 C 10.402344 27.753906 9.578125 28.144531 9.121094 28.855469 C 8.636719 29.554688 8.742188 30.445312 9.386719 30.964844 C 10.007812 31.511719 10.894531 31.644531 11.777344 31.53125 C 12.664062 31.421875 13.597656 31.167969 14.523438 30.976562 C 16.363281 30.558594 18.199219 30.136719 19.992188 29.574219 C 20.882812 29.300781 21.753906 29 22.34375 28.449219 C 22.492188 28.308594 22.617188 28.164062 22.714844 27.996094 C 22.824219 27.820312 22.933594 27.59375 23.113281 27.355469 C 23.269531 27.128906 23.613281 26.800781 24.082031 26.8125 C 24.558594 26.832031 24.867188 27.105469 25.058594 27.394531 C 25.464844 28.046875 25.28125 28.800781 24.882812 29.289062 C 24.679688 29.542969 24.378906 29.753906 24.019531 29.832031 C 23.664062 29.917969 23.261719 29.835938 22.972656 29.644531 C 22.390625 29.257812 22.09375 28.617188 22.1875 27.910156 C 22.3125 27.152344 23.027344 26.695312 23.632812 26.636719 C 24.238281 26.550781 24.882812 26.757812 25.332031 27.089844 C 25.789062 27.417969 26.125 27.828125 26.425781 28.203125 L 28.183594 30.441406 L 35.199219 39.394531 C 36.359375 40.894531 37.523438 42.378906 38.660156 43.917969 C 39.796875 45.453125 40.808594 47.144531 41.484375 48.953125 C 42.175781 50.75 42.652344 52.59375 43.21875 54.394531 C 43.773438 56.199219 44.390625 57.988281 45.058594 59.757812 C 46.40625 63.285156 47.890625 66.773438 49.621094 70.148438 L 49.535156 70.191406 C 47.6875 66.878906 45.992188 63.46875 44.589844 59.9375 C 43.882812 58.171875 43.226562 56.386719 42.625 54.582031 C 42.015625 52.777344 41.503906 50.957031 40.792969 49.230469 C 39.4375 45.746094 36.738281 43 34.433594 39.996094 L 27.386719 31.066406 L 25.625 28.839844 C 25.0625 28.109375 24.445312 27.550781 23.761719 27.648438 C 23.433594 27.683594 23.210938 27.878906 23.179688 28.082031 C 23.128906 28.316406 23.285156 28.679688 23.503906 28.804688 C 23.703125 28.941406 23.925781 28.894531 24.128906 28.667969 C 24.324219 28.441406 24.371094 28.085938 24.25 27.921875 C 24.191406 27.8125 24.078125 27.761719 24.070312 27.769531 C 24.046875 27.765625 23.992188 27.78125 23.871094 27.929688 C 23.761719 28.070312 23.660156 28.269531 23.519531 28.496094 C 23.371094 28.734375 23.183594 28.949219 22.984375 29.136719 C 22.160156 29.875 21.164062 30.167969 20.257812 30.449219 C 18.421875 31 16.558594 31.425781 14.695312 31.796875 C 13.761719 31.972656 12.859375 32.207031 11.855469 32.3125 C 10.878906 32.417969 9.71875 32.253906 8.90625 31.503906 C 8.503906 31.148438 8.191406 30.628906 8.132812 30.054688 C 8.078125 29.484375 8.269531 28.925781 8.570312 28.488281 C 9.167969 27.582031 10.238281 27.136719 11.210938 27.035156 C 12.207031 26.917969 13.15625 27.007812 14.101562 27.039062 C 15.054688 27.085938 16 27.144531 16.945312 27.21875 C 18.84375 27.363281 20.730469 27.5625 22.613281 27.8125 L 22.582031 28.175781 C 20.5 28.078125 18.390625 27.976562 16.335938 27.507812 C 15.308594 27.277344 14.300781 26.933594 13.347656 26.476562 C 12.402344 26.023438 11.476562 25.445312 10.777344 24.609375 C 10.078125 23.796875 9.691406 22.640625 9.941406 21.550781 C 10.058594 21.011719 10.355469 20.484375 10.789062 20.128906 C 11.222656 19.769531 11.742188 19.554688 12.242188 19.382812 C 13.25 19.066406 14.25 18.8125 14.929688 18.085938 C 15.617188 17.386719 15.992188 16.421875 16.28125 15.445312 C 16.574219 14.457031 16.792969 13.425781 17.152344 12.414062 C 17.34375 11.914062 17.550781 11.40625 17.851562 10.9375 C 18.132812 10.457031 18.539062 10.003906 19.085938 9.714844 C 19.625 9.40625 20.457031 9.414062 20.96875 9.878906 C 21.492188 10.328125 21.679688 10.921875 21.816406 11.457031 C 22.039062 12.546875 22.152344 13.527344 22.347656 14.570312 C 23.070312 18.664062 23.941406 22.738281 25.011719 26.761719 L 24.398438 26.546875 C 25.160156 25.992188 25.617188 25.066406 25.839844 24.078125 C 26.078125 23.085938 26.132812 22.035156 26.210938 20.96875 L 26.71875 14.585938 L 26.972656 11.398438 C 27 10.867188 27.085938 10.324219 27.058594 9.839844 C 27.03125 9.351562 26.839844 8.84375 26.410156 8.828125 C 25.988281 8.800781 25.585938 9.21875 25.226562 9.585938 C 24.859375 9.964844 24.511719 10.363281 24.195312 10.789062 C 23.5625 11.632812 23.03125 12.558594 22.625 13.539062 L 22.535156 13.503906 " fill-opacity="1" fill-rule="nonzero"/></g></g></g><g clip-path="url(#809812f277)"><g clip-path="url(#17b87d8f81)"><g clip-path="url(#e9954f3762)"><path fill="#000000" d="M 16.859375 29.597656 C 17.296875 29.183594 17.761719 28.992188 18.269531 28.960938 C 18.527344 28.96875 18.804688 29.070312 19.058594 29.039062 C 19.308594 29.023438 19.542969 28.902344 19.761719 28.761719 C 20.207031 28.453125 20.671875 28.273438 21.148438 28.132812 C 21.640625 28.042969 22.148438 28.003906 22.726562 28.148438 L 22.753906 28.242188 C 22.367188 28.691406 21.910156 28.945312 21.433594 29.128906 C 20.9375 29.265625 20.429688 29.34375 19.894531 29.277344 C 19.625 29.257812 19.363281 29.253906 19.125 29.347656 C 18.886719 29.433594 18.671875 29.640625 18.4375 29.753906 C 17.953125 29.929688 17.429688 29.929688 16.875 29.691406 L 16.859375 29.597656 " fill-opacity="1" fill-rule="nonzero"/></g></g></g><g clip-path="url(#6ee0ec6de5)"><g clip-path="url(#eaf2f93b68)"><g clip-path="url(#a300d7acdd)"><path fill="#000000" d="M 24.046875 27.582031 C 23.949219 26.925781 24.03125 26.378906 24.25 25.855469 C 24.375 25.597656 24.59375 25.359375 24.683594 25.085938 C 24.777344 24.8125 24.765625 24.515625 24.726562 24.226562 C 24.621094 23.636719 24.617188 23.078125 24.628906 22.519531 C 24.691406 21.964844 24.792969 21.410156 25.058594 20.816406 L 25.152344 20.804688 C 25.511719 21.359375 25.640625 21.960938 25.664062 22.558594 C 25.640625 23.152344 25.53125 23.75 25.25 24.304688 C 25.125 24.582031 25.011719 24.855469 24.988281 25.148438 C 24.960938 25.441406 25.046875 25.757812 25.027344 26.0625 C 24.945312 26.65625 24.664062 27.203125 24.136719 27.617188 L 24.046875 27.582031 " fill-opacity="1" fill-rule="nonzero"/></g></g></g><g clip-path="url(#4e49fedd3a)"><g clip-path="url(#e8d51dbea8)"><g clip-path="url(#ef2bc98431)"><path fill="#000000" d="M 19.042969 25.34375 C 19.519531 25.367188 19.8125 25.511719 20.019531 25.78125 C 20.105469 25.929688 20.144531 26.15625 20.265625 26.28125 C 20.382812 26.410156 20.558594 26.457031 20.746094 26.472656 C 21.132812 26.488281 21.4375 26.59375 21.734375 26.726562 C 22.011719 26.902344 22.265625 27.117188 22.503906 27.519531 L 22.472656 27.613281 C 22.046875 27.808594 21.65625 27.777344 21.304688 27.664062 C 20.972656 27.507812 20.664062 27.277344 20.464844 26.921875 C 20.355469 26.757812 20.246094 26.609375 20.082031 26.535156 C 19.921875 26.457031 19.683594 26.472656 19.503906 26.398438 C 19.175781 26.226562 18.960938 25.890625 18.972656 25.410156 L 19.042969 25.34375 " fill-opacity="1" fill-rule="nonzero"/></g></g></g><g clip-path="url(#89b9c090ae)"><g clip-path="url(#0f76854252)"><g clip-path="url(#b64de108f6)"><path fill="#000000" d="M 23.675781 27.257812 C 23.292969 26.898438 23.109375 26.582031 23.050781 26.195312 C 23.042969 25.996094 23.113281 25.753906 23.054688 25.558594 C 23.003906 25.363281 22.851562 25.210938 22.683594 25.085938 C 22.316406 24.851562 22.050781 24.585938 21.796875 24.3125 C 21.574219 24 21.378906 23.671875 21.238281 23.183594 L 21.296875 23.105469 C 21.816406 23.097656 22.230469 23.316406 22.5625 23.617188 C 22.855469 23.945312 23.082031 24.347656 23.136719 24.8125 C 23.171875 25.042969 23.214844 25.253906 23.339844 25.421875 C 23.453125 25.601562 23.683594 25.734375 23.8125 25.925781 C 24.027344 26.308594 24.046875 26.789062 23.773438 27.242188 L 23.675781 27.257812 " fill-opacity="1" fill-rule="nonzero"/></g></g></g><g clip-path="url(#a26d5154b0)"><g clip-path="url(#37fb44e5dc)"><g clip-path="url(#0412ee89ca)"><g clip-path="url(#11ce88852a)"><g clip-path="url(#2343b3bf5a)"><path fill="#000000" d="M 47.324219 26.011719 C 46.328125 25.011719 45.183594 24.058594 43.824219 23.796875 C 43.15625 23.679688 42.460938 23.710938 41.824219 23.925781 C 41.1875 24.125 40.648438 24.546875 40.511719 25.125 C 40.363281 25.710938 40.546875 26.398438 40.679688 27.101562 C 40.8125 27.800781 40.964844 28.488281 41.15625 29.160156 C 41.546875 30.488281 42.175781 31.757812 43.230469 32.558594 L 42.589844 32.703125 C 43.644531 30.535156 44.949219 28.496094 46.410156 26.589844 C 46.792969 26.121094 47.132812 25.644531 47.613281 25.191406 C 47.855469 24.972656 48.132812 24.765625 48.484375 24.648438 C 48.828125 24.523438 49.253906 24.542969 49.585938 24.710938 C 50.820312 25.433594 51.199219 26.847656 51.09375 28.066406 C 50.992188 29.316406 50.394531 30.46875 49.609375 31.382812 C 48.820312 32.3125 47.898438 33.070312 46.988281 33.855469 C 46.511719 34.226562 46 34.574219 45.40625 34.785156 C 44.832031 35 44.101562 35.027344 43.539062 34.648438 C 42.972656 34.277344 42.683594 33.679688 42.417969 33.152344 C 42.152344 32.617188 41.898438 32.078125 41.648438 31.53125 C 41.160156 30.441406 40.703125 29.332031 40.292969 28.207031 C 39.894531 27.089844 39.503906 25.957031 38.679688 25.300781 C 38.269531 24.972656 37.773438 24.765625 37.304688 24.789062 C 36.839844 24.808594 36.414062 25.074219 36.101562 25.457031 C 35.453125 26.25 35.460938 27.382812 35.855469 28.410156 C 36.695312 30.496094 38.242188 32.355469 40.023438 33.769531 C 40.910156 34.46875 41.960938 35.101562 42.933594 35.507812 C 43.140625 35.566406 43.203125 35.550781 43.332031 35.46875 C 43.453125 35.382812 43.570312 35.199219 43.597656 35.027344 C 43.671875 34.667969 43.46875 34.179688 43.15625 33.734375 L 43.769531 33.898438 C 43.0625 34.21875 42.445312 34.578125 42.375 35.113281 C 42.332031 35.390625 42.394531 35.597656 42.578125 35.710938 C 42.6875 35.789062 42.875 35.859375 43.097656 35.996094 C 43.328125 36.132812 43.546875 36.417969 43.625 36.679688 C 43.78125 37.214844 43.679688 37.644531 43.65625 38.023438 L 43.542969 39.207031 L 43.308594 41.574219 C 43.140625 43.148438 42.960938 44.726562 42.742188 46.296875 C 42.511719 47.867188 42.238281 49.433594 41.929688 50.988281 L 41.832031 50.972656 C 42.226562 47.828125 42.449219 44.675781 42.640625 41.515625 L 42.785156 39.148438 L 42.859375 37.960938 C 42.886719 37.554688 42.921875 37.183594 42.832031 36.949219 C 42.785156 36.832031 42.746094 36.789062 42.640625 36.71875 C 42.527344 36.648438 42.335938 36.582031 42.113281 36.449219 C 41.878906 36.316406 41.648438 36.050781 41.558594 35.785156 C 41.457031 35.507812 41.441406 35.234375 41.476562 34.976562 C 41.542969 34.449219 41.875 33.976562 42.238281 33.691406 C 42.601562 33.390625 42.988281 33.191406 43.347656 33.023438 L 43.726562 32.839844 L 43.957031 33.1875 C 44.304688 33.703125 44.699219 34.367188 44.5625 35.214844 C 44.484375 35.617188 44.277344 35.992188 43.921875 36.261719 C 43.582031 36.558594 42.980469 36.597656 42.628906 36.449219 C 41.398438 35.953125 40.394531 35.332031 39.398438 34.574219 C 37.441406 33.058594 35.890625 31.070312 34.972656 28.726562 C 34.761719 28.125 34.628906 27.464844 34.675781 26.789062 C 34.722656 26.101562 34.976562 25.433594 35.421875 24.898438 C 35.855469 24.363281 36.546875 23.957031 37.285156 23.957031 C 38.015625 23.949219 38.675781 24.273438 39.175781 24.699219 C 40.222656 25.601562 40.5625 26.886719 40.910156 27.996094 C 41.265625 29.125 41.660156 30.242188 42.105469 31.339844 C 42.328125 31.886719 42.5625 32.429688 42.804688 32.972656 C 43.046875 33.507812 43.292969 34.046875 43.738281 34.347656 C 44.183594 34.652344 44.769531 34.652344 45.300781 34.464844 C 45.839844 34.289062 46.332031 33.964844 46.796875 33.609375 C 47.710938 32.871094 48.613281 32.074219 49.347656 31.167969 C 50.082031 30.265625 50.640625 29.191406 50.664062 28.042969 C 50.6875 27.476562 50.59375 26.90625 50.367188 26.40625 C 50.144531 25.921875 49.761719 25.445312 49.335938 25.253906 C 48.921875 25.070312 48.464844 25.296875 48.082031 25.6875 C 47.710938 26.066406 47.375 26.578125 47.023438 27.046875 C 45.632812 28.953125 44.425781 30.984375 43.347656 33.078125 L 43.109375 33.539062 L 42.707031 33.222656 C 41.464844 32.234375 40.808594 30.773438 40.425781 29.371094 C 40.226562 28.660156 40.085938 27.945312 39.964844 27.234375 C 39.871094 26.535156 39.671875 25.777344 39.90625 24.953125 C 40.148438 24.109375 40.945312 23.597656 41.667969 23.414062 C 42.402344 23.210938 43.179688 23.1875 43.914062 23.382812 C 45.390625 23.785156 46.496094 24.847656 47.394531 25.949219 L 47.324219 26.011719 " fill-opacity="1" fill-rule="nonzero"/></g></g></g></g></g><g clip-path="url(#ac6d3998c1)"><g clip-path="url(#aa4c0f9ca7)"><g clip-path="url(#3af07d8680)"><path fill="#000000" d="M 39.308594 30.550781 C 39.722656 30.898438 39.929688 31.226562 40.019531 31.625 C 40.042969 31.832031 39.992188 32.089844 40.070312 32.285156 C 40.140625 32.488281 40.304688 32.640625 40.492188 32.757812 C 40.886719 32.980469 41.179688 33.238281 41.464844 33.507812 C 41.59375 33.660156 41.722656 33.816406 41.832031 34 C 41.886719 34.082031 41.964844 34.195312 41.988281 34.277344 C 42 34.308594 41.957031 34.3125 41.910156 34.386719 C 41.859375 34.464844 41.914062 34.5 41.921875 34.484375 C 41.917969 34.484375 42.007812 34.472656 41.992188 34.441406 L 41.910156 34.390625 C 41.902344 34.367188 41.964844 34.316406 42.011719 34.328125 C 42.054688 34.335938 42.082031 34.351562 42.101562 34.371094 C 42.144531 34.402344 42.210938 34.503906 42.117188 34.621094 C 41.980469 34.765625 41.8125 34.71875 41.738281 34.703125 C 41.582031 34.667969 41.492188 34.644531 41.367188 34.601562 C 41.140625 34.527344 40.941406 34.398438 40.757812 34.257812 C 40.425781 33.9375 40.15625 33.539062 40.058594 33.058594 C 40 32.828125 39.933594 32.613281 39.796875 32.4375 C 39.664062 32.265625 39.425781 32.132812 39.277344 31.945312 C 39.027344 31.558594 38.972656 31.058594 39.214844 30.570312 L 39.308594 30.550781 " fill-opacity="1" fill-rule="nonzero"/></g></g></g><g clip-path="url(#2b551159c8)"><g clip-path="url(#74e49bcc9e)"><g clip-path="url(#f0fdf762fd)"><path fill="#000000" d="M 44.035156 33.980469 C 44.277344 33.5 44.609375 33.242188 45.003906 33.117188 C 45.207031 33.074219 45.46875 33.105469 45.65625 33.019531 C 45.851562 32.941406 45.992188 32.769531 46.09375 32.578125 C 46.289062 32.179688 46.5 31.882812 46.707031 31.578125 C 46.949219 31.304688 47.199219 31.054688 47.589844 30.714844 L 47.683594 30.734375 C 47.910156 31.222656 47.792969 31.757812 47.554688 32.171875 C 47.28125 32.566406 46.894531 32.875 46.421875 32.996094 C 46.195312 33.066406 45.988281 33.140625 45.824219 33.285156 C 45.660156 33.425781 45.550781 33.671875 45.386719 33.828125 C 45.03125 34.101562 44.597656 34.195312 44.074219 34.066406 L 44.035156 33.980469 " fill-opacity="1" fill-rule="nonzero"/></g></g></g><g clip-path="url(#2700b3cff9)"><g clip-path="url(#e506e3e2b9)"><g clip-path="url(#257aab31db)"><path fill="#000000" d="M 42.929688 28.976562 C 43.109375 29.382812 43.128906 29.625 43.003906 29.871094 C 42.921875 29.980469 42.746094 30.097656 42.703125 30.234375 C 42.65625 30.375 42.714844 30.519531 42.800781 30.652344 C 43 30.917969 43.09375 31.152344 43.164062 31.394531 C 43.183594 31.652344 43.167969 31.917969 43.03125 32.316406 L 42.945312 32.363281 C 42.53125 32.253906 42.292969 31.96875 42.160156 31.660156 C 42.082031 31.339844 42.085938 30.988281 42.269531 30.667969 C 42.351562 30.511719 42.417969 30.363281 42.390625 30.207031 C 42.375 30.058594 42.242188 29.878906 42.214844 29.707031 C 42.203125 29.378906 42.410156 29.0625 42.839844 28.9375 L 42.929688 28.976562 " fill-opacity="1" fill-rule="nonzero"/></g></g></g></g></g></g></g></svg>