<svg width="329" height="76" viewBox="0 0 329 76" fill="none" xmlns="http://www.w3.org/2000/svg">
<path d="M6.105 41V3.16H23.1C25.4467 3.16 27.28 3.47167 28.6 4.095C29.9567 4.68167 30.9467 5.50666 31.57 6.57C32.1933 7.59666 32.5783 8.77 32.725 10.09C32.9083 11.3733 33 12.7117 33 14.105C33 15.5717 32.8717 17.02 32.615 18.45C32.395 19.88 31.845 21.145 30.965 22.245C30.1217 23.3083 28.7467 24.0967 26.84 24.61L33.44 41H30.525L23.98 24.5L24.915 24.885C24.6583 24.9583 24.3283 25.0133 23.925 25.05C23.5217 25.0867 22.9167 25.105 22.11 25.105H8.745V41H6.105ZM8.745 22.685H21.89C23.87 22.685 25.4283 22.4833 26.565 22.08C27.7017 21.6767 28.5267 21.09 29.04 20.32C29.59 19.55 29.9383 18.6517 30.085 17.625C30.2683 16.5983 30.36 15.425 30.36 14.105C30.36 12.8217 30.2867 11.6667 30.14 10.64C30.03 9.57666 29.7367 8.67833 29.26 7.945C28.7833 7.175 28.0133 6.58833 26.95 6.185C25.8867 5.78166 24.4383 5.58 22.605 5.58H8.745V22.685ZM53.6577 41.44C51.531 41.44 49.7343 41.2933 48.2677 41C46.8377 40.7433 45.6827 40.3033 44.8027 39.68C43.9227 39.02 43.2443 38.14 42.7677 37.04C42.291 35.94 41.9793 34.565 41.8327 32.915C41.686 31.265 41.6127 29.3033 41.6127 27.03C41.6127 24.3167 41.7043 22.0433 41.8877 20.21C42.071 18.34 42.5293 16.855 43.2627 15.755C44.0327 14.6183 45.2427 13.7933 46.8927 13.28C48.5427 12.7667 50.816 12.51 53.7127 12.51C55.766 12.51 57.4527 12.675 58.7727 13.005C60.0927 13.2983 61.1377 13.775 61.9077 14.435C62.6777 15.0583 63.246 15.9383 63.6127 17.075C63.9793 18.2117 64.2177 19.5867 64.3277 21.2C64.4377 22.8133 64.4927 24.72 64.4927 26.92V27.855H44.1427C44.1427 30.1283 44.2343 32.0167 44.4177 33.52C44.6377 34.9867 45.0593 36.1417 45.6827 36.985C46.3427 37.8283 47.3327 38.415 48.6527 38.745C50.0093 39.0383 51.8243 39.185 54.0977 39.185C55.051 39.185 56.0777 39.1667 57.1777 39.13C58.3143 39.0567 59.4143 38.965 60.4777 38.855C61.5777 38.745 62.5493 38.6167 63.3927 38.47V40.725C62.6593 40.8717 61.7427 41 60.6427 41.11C59.5793 41.22 58.4427 41.2933 57.2327 41.33C56.0227 41.4033 54.831 41.44 53.6577 41.44ZM61.9627 26.81V24.72C61.9627 22.4833 61.8343 20.705 61.5777 19.385C61.321 18.065 60.881 17.075 60.2577 16.415C59.6343 15.7183 58.7727 15.2783 57.6727 15.095C56.5727 14.875 55.1977 14.765 53.5477 14.765C51.421 14.765 49.7343 14.8933 48.4877 15.15C47.241 15.4067 46.2877 15.92 45.6277 16.69C45.0043 17.46 44.601 18.56 44.4177 19.99C44.2343 21.42 44.1427 23.3267 44.1427 25.71H63.0627L61.9627 26.81ZM84.0477 52.33C82.9844 52.33 81.8661 52.3117 80.6927 52.275C79.5561 52.2383 78.4561 52.1833 77.3927 52.11C76.3294 52.0733 75.4127 52.0183 74.6427 51.945V49.69C75.7061 49.7633 76.7511 49.8183 77.7777 49.855C78.8411 49.9283 79.8677 49.9833 80.8577 50.02C81.8477 50.0567 82.7644 50.075 83.6077 50.075C85.9177 50.075 87.7511 49.855 89.1077 49.415C90.5011 48.975 91.5094 48.2783 92.1327 47.325C92.7927 46.4083 93.2144 45.2167 93.3977 43.75C93.6177 42.2833 93.7277 40.5233 93.7277 38.47V36.93H93.4527C93.2327 37.6267 92.7927 38.3233 92.1327 39.02C91.4727 39.7167 90.4827 40.285 89.1627 40.725C87.8794 41.165 86.1194 41.385 83.8827 41.385C81.6827 41.385 79.9044 41.1833 78.5477 40.78C77.2277 40.3767 76.2194 39.7533 75.5227 38.91C74.8261 38.03 74.3494 36.9117 74.0927 35.555C73.8727 34.1617 73.7627 32.475 73.7627 30.495V12.95H76.2927V29.945C76.2927 31.925 76.3844 33.5383 76.5677 34.785C76.7877 35.995 77.1911 36.9117 77.7777 37.535C78.3644 38.1583 79.2077 38.58 80.3077 38.8C81.4077 39.02 82.8377 39.13 84.5977 39.13C86.8711 39.13 88.6311 38.8367 89.8777 38.25C91.1244 37.6633 92.0227 36.8383 92.5727 35.775C93.1227 34.7117 93.4527 33.4833 93.5627 32.09C93.6727 30.66 93.7277 29.1017 93.7277 27.415V12.95H96.2577V37.37C96.2577 40.12 96.0927 42.4483 95.7627 44.355C95.4694 46.2983 94.9011 47.8383 94.0577 48.975C93.2144 50.1483 91.9861 50.9917 90.3727 51.505C88.7594 52.055 86.6511 52.33 84.0477 52.33ZM106.902 41V0.134998H109.432V16.965H109.652C109.946 16.2683 110.404 15.59 111.027 14.93C111.687 14.2333 112.659 13.665 113.942 13.225C115.262 12.7483 117.041 12.51 119.277 12.51C121.477 12.51 123.237 12.73 124.557 13.17C125.914 13.5733 126.941 14.1967 127.637 15.04C128.334 15.8833 128.792 17.0017 129.012 18.395C129.269 19.7883 129.397 21.4567 129.397 23.4V41H126.867V24.005C126.867 21.9883 126.757 20.375 126.537 19.165C126.354 17.955 125.951 17.0383 125.327 16.415C124.741 15.755 123.897 15.3333 122.797 15.15C121.734 14.93 120.322 14.82 118.562 14.82C116.289 14.82 114.529 15.1133 113.282 15.7C112.036 16.2867 111.137 17.1117 110.587 18.175C110.037 19.2017 109.707 20.43 109.597 21.86C109.487 23.29 109.432 24.83 109.432 26.48V41H106.902ZM148.072 41.44C145.799 41.44 143.929 41.2383 142.462 40.835C140.995 40.395 139.914 39.6067 139.217 38.47C138.52 37.2967 138.172 35.5917 138.172 33.355C138.172 31.3017 138.41 29.6883 138.887 28.515C139.364 27.3417 140.207 26.5167 141.417 26.04C142.627 25.5633 144.332 25.325 146.532 25.325C146.935 25.325 147.577 25.3433 148.457 25.38C149.374 25.38 150.4 25.3983 151.537 25.435C152.71 25.435 153.884 25.4533 155.057 25.49C156.23 25.49 157.33 25.5083 158.357 25.545V23.235C158.357 21.255 158.229 19.715 157.972 18.615C157.752 17.4783 157.312 16.635 156.652 16.085C155.992 15.4983 155.039 15.1317 153.792 14.985C152.545 14.8383 150.932 14.765 148.952 14.765C148.109 14.765 147.119 14.8017 145.982 14.875C144.882 14.9483 143.8 15.04 142.737 15.15C141.674 15.2233 140.794 15.315 140.097 15.425V13.17C141.27 12.9867 142.7 12.84 144.387 12.73C146.11 12.5833 147.944 12.51 149.887 12.51C151.72 12.51 153.279 12.62 154.562 12.84C155.882 13.0233 156.945 13.3533 157.752 13.83C158.595 14.27 159.237 14.8933 159.677 15.7C160.117 16.47 160.429 17.46 160.612 18.67C160.795 19.88 160.887 21.31 160.887 22.96V41H158.742L158.577 36.6H158.357C157.807 38.03 156.964 39.0933 155.827 39.79C154.69 40.4867 153.425 40.9267 152.032 41.11C150.675 41.33 149.355 41.44 148.072 41.44ZM148.402 39.24C149.649 39.24 150.84 39.185 151.977 39.075C153.15 38.9283 154.177 38.635 155.057 38.195C155.937 37.755 156.615 37.0583 157.092 36.105C157.569 35.0783 157.899 34.0517 158.082 33.025C158.265 31.9617 158.357 30.77 158.357 29.45V27.415H147.192C145.469 27.415 144.13 27.5617 143.177 27.855C142.224 28.1117 141.564 28.6617 141.197 29.505C140.83 30.3483 140.647 31.6133 140.647 33.3C140.647 34.9133 140.849 36.16 141.252 37.04C141.692 37.8833 142.462 38.47 143.562 38.8C144.699 39.0933 146.312 39.24 148.402 39.24ZM171.57 41V12.95H173.715L173.88 17.405H174.1C174.43 16.525 174.925 15.7183 175.585 14.985C176.282 14.2517 177.29 13.665 178.61 13.225C179.93 12.7483 181.709 12.51 183.945 12.51C186.145 12.51 187.905 12.73 189.225 13.17C190.582 13.5733 191.609 14.1967 192.305 15.04C193.002 15.8833 193.46 17.0017 193.68 18.395C193.937 19.7883 194.065 21.4567 194.065 23.4V41H191.535V24.005C191.535 21.9883 191.425 20.375 191.205 19.165C191.022 17.955 190.619 17.0383 189.995 16.415C189.409 15.755 188.565 15.3333 187.465 15.15C186.402 14.93 184.99 14.82 183.23 14.82C180.957 14.82 179.197 15.1133 177.95 15.7C176.704 16.2867 175.805 17.1117 175.255 18.175C174.705 19.2017 174.375 20.43 174.265 21.86C174.155 23.29 174.1 24.83 174.1 26.48V41H171.57ZM217.941 41V3.16H241.646V5.58H220.581V20.65H239.061V23.07H220.581V38.58H241.646V41H217.941ZM250.096 41V12.95H252.186L252.406 18.78H252.626C253.066 17.0933 253.744 15.7917 254.661 14.875C255.614 13.9583 256.732 13.335 258.016 13.005C259.299 12.675 260.711 12.51 262.251 12.51V15.095C259.611 15.095 257.594 15.5533 256.201 16.47C254.807 17.3867 253.854 18.7433 253.341 20.54C252.864 22.3367 252.626 24.5367 252.626 27.14V41H250.096ZM279.62 41.44C277.493 41.44 275.696 41.2933 274.23 41C272.8 40.7433 271.645 40.3033 270.765 39.68C269.885 39.02 269.206 38.14 268.73 37.04C268.253 35.94 267.941 34.565 267.795 32.915C267.648 31.265 267.575 29.3033 267.575 27.03C267.575 24.3167 267.666 22.0433 267.85 20.21C268.033 18.34 268.491 16.855 269.225 15.755C269.995 14.6183 271.205 13.7933 272.855 13.28C274.505 12.7667 276.778 12.51 279.675 12.51C281.728 12.51 283.415 12.675 284.735 13.005C286.055 13.2983 287.1 13.775 287.87 14.435C288.64 15.0583 289.208 15.9383 289.575 17.075C289.941 18.2117 290.18 19.5867 290.29 21.2C290.4 22.8133 290.455 24.72 290.455 26.92V27.855H270.105C270.105 30.1283 270.196 32.0167 270.38 33.52C270.6 34.9867 271.021 36.1417 271.645 36.985C272.305 37.8283 273.295 38.415 274.615 38.745C275.971 39.0383 277.786 39.185 280.06 39.185C281.013 39.185 282.04 39.1667 283.14 39.13C284.276 39.0567 285.376 38.965 286.44 38.855C287.54 38.745 288.511 38.6167 289.355 38.47V40.725C288.621 40.8717 287.705 41 286.605 41.11C285.541 41.22 284.405 41.2933 283.195 41.33C281.985 41.4033 280.793 41.44 279.62 41.44ZM287.925 26.81V24.72C287.925 22.4833 287.796 20.705 287.54 19.385C287.283 18.065 286.843 17.075 286.22 16.415C285.596 15.7183 284.735 15.2783 283.635 15.095C282.535 14.875 281.16 14.765 279.51 14.765C277.383 14.765 275.696 14.8933 274.45 15.15C273.203 15.4067 272.25 15.92 271.59 16.69C270.966 17.46 270.563 18.56 270.38 19.99C270.196 21.42 270.105 23.3267 270.105 25.71H289.025L287.925 26.81ZM299.725 41V12.95H301.87L302.035 17.405H302.255C302.585 16.525 303.08 15.7183 303.74 14.985C304.436 14.2517 305.445 13.665 306.765 13.225C308.085 12.7483 309.863 12.51 312.1 12.51C314.3 12.51 316.06 12.73 317.38 13.17C318.736 13.5733 319.763 14.1967 320.46 15.04C321.156 15.8833 321.615 17.0017 321.835 18.395C322.091 19.7883 322.22 21.4567 322.22 23.4V41H319.69V24.005C319.69 21.9883 319.58 20.375 319.36 19.165C319.176 17.955 318.773 17.0383 318.15 16.415C317.563 15.755 316.72 15.3333 315.62 15.15C314.556 14.93 313.145 14.82 311.385 14.82C309.111 14.82 307.351 15.1133 306.105 15.7C304.858 16.2867 303.96 17.1117 303.41 18.175C302.86 19.2017 302.53 20.43 302.42 21.86C302.31 23.29 302.255 24.83 302.255 26.48V41H299.725Z" fill="#333333"/>
<path d="M160.122 69.918L167.568 51.9248H169.729L177.175 69.918H174.441L172.317 64.7178L172.024 63.7656L168.704 55.3062H168.606L165.286 63.7656L164.98 64.7178L162.856 69.918H160.122ZM163.76 65.4502V63.1675H173.55V65.4502H163.76ZM178.982 69.918V56.9419H181.472V69.918H178.982ZM180.227 54.9888C179.731 54.9888 179.312 54.8179 178.97 54.4761C178.636 54.1343 178.469 53.7192 178.469 53.231C178.469 52.7427 178.636 52.3276 178.97 51.9858C179.312 51.644 179.731 51.4731 180.227 51.4731C180.715 51.4731 181.13 51.644 181.472 51.9858C181.814 52.3276 181.985 52.7427 181.985 53.231C181.985 53.7192 181.814 54.1343 181.472 54.4761C181.13 54.8179 180.715 54.9888 180.227 54.9888ZM187.649 70.1133C187.006 70.1133 186.477 69.979 186.062 69.7104C185.647 69.4338 185.338 69.0431 185.134 68.5386C184.931 68.0259 184.829 67.4237 184.829 66.7319V51.1191H187.319V66.6465C187.319 66.8174 187.336 67.0005 187.368 67.1958C187.401 67.383 187.482 67.5457 187.612 67.6841C187.743 67.8143 187.954 67.8794 188.247 67.8794C188.353 67.8794 188.451 67.8713 188.54 67.855C188.638 67.8306 188.731 67.8062 188.821 67.7817V69.9302C188.674 69.9871 188.495 70.0319 188.284 70.0645C188.08 70.097 187.869 70.1133 187.649 70.1133ZM196.755 70.1133C195.494 70.1133 194.379 69.8366 193.411 69.2832C192.45 68.7217 191.698 67.9404 191.152 66.9395C190.607 65.9303 190.334 64.7544 190.334 63.4116C190.334 62.0526 190.603 60.8766 191.14 59.8838C191.677 58.891 192.406 58.1219 193.325 57.5767C194.245 57.0233 195.27 56.7466 196.401 56.7466C197.508 56.7466 198.493 56.9989 199.355 57.5034C200.226 58.008 200.914 58.7119 201.418 59.6152C201.923 60.5104 202.175 61.548 202.175 62.728C202.175 63.0535 202.155 63.3547 202.114 63.6313C202.082 63.8999 202.045 64.1359 202.004 64.3394H192.214V62.4595H199.795C199.795 61.8084 199.657 61.2184 199.38 60.6895C199.103 60.1523 198.708 59.7292 198.196 59.4199C197.691 59.1025 197.093 58.9438 196.401 58.9438C195.661 58.9438 195.01 59.131 194.448 59.5054C193.887 59.8716 193.447 60.3883 193.13 61.0557C192.821 61.723 192.666 62.5002 192.666 63.3872C192.666 64.2905 192.833 65.084 193.167 65.7676C193.5 66.443 193.976 66.972 194.595 67.3545C195.213 67.7288 195.946 67.916 196.792 67.916C197.28 67.916 197.736 67.855 198.159 67.7329C198.582 67.6108 198.961 67.4562 199.294 67.269C199.628 67.0737 199.913 66.8784 200.149 66.6831L201.052 68.8193C200.548 69.1774 199.921 69.4826 199.172 69.7349C198.432 69.9871 197.626 70.1133 196.755 70.1133ZM211.392 69.918V51.9248H217.275C218.48 51.9248 219.599 52.1242 220.632 52.5229C221.674 52.9136 222.581 53.4873 223.354 54.2441C224.136 55.001 224.742 55.9287 225.173 57.0273C225.613 58.1178 225.833 59.367 225.833 60.7749C225.833 62.2072 225.613 63.4889 225.173 64.6201C224.742 65.7432 224.144 66.6994 223.379 67.4888C222.614 68.2782 221.727 68.8804 220.718 69.2954C219.709 69.7104 218.622 69.918 217.458 69.918H211.392ZM213.979 67.562H217.483C218.248 67.562 218.976 67.4115 219.668 67.1104C220.36 66.8092 220.974 66.3698 221.511 65.792C222.048 65.2061 222.467 64.494 222.769 63.6558C223.078 62.8094 223.232 61.8491 223.232 60.7749C223.232 59.717 223.078 58.7852 222.769 57.9795C222.467 57.1657 222.048 56.4862 221.511 55.9409C220.974 55.3957 220.36 54.9847 219.668 54.708C218.976 54.4232 218.248 54.2808 217.483 54.2808H213.979V67.562ZM231.912 70.1133C231.09 70.1133 230.353 69.9546 229.702 69.6372C229.051 69.3117 228.538 68.856 228.164 68.27C227.79 67.6841 227.603 66.9964 227.603 66.207C227.603 65.377 227.826 64.6608 228.274 64.0586C228.73 63.4564 229.393 62.9966 230.264 62.6792C231.134 62.3618 232.192 62.2031 233.438 62.2031H236.196V64.0464H233.547C232.424 64.0464 231.554 64.2295 230.935 64.5957C230.325 64.9538 230.02 65.4787 230.02 66.1704C230.02 66.5692 230.121 66.911 230.325 67.1958C230.528 67.4725 230.801 67.6882 231.143 67.8428C231.493 67.9893 231.883 68.0625 232.314 68.0625C232.795 68.0625 233.303 67.9567 233.84 67.7451C234.377 67.5335 234.837 67.2161 235.22 66.793C235.602 66.3617 235.793 65.8286 235.793 65.1938V63.8511L235.684 63.1309V61.6172C235.684 61.3812 235.659 61.1126 235.61 60.8115C235.57 60.5023 235.464 60.2093 235.293 59.9326C235.13 59.6478 234.874 59.4118 234.524 59.2246C234.174 59.0374 233.698 58.9438 233.096 58.9438C232.697 58.9438 232.266 58.9927 231.802 59.0903C231.346 59.188 230.903 59.3223 230.471 59.4932C230.048 59.6641 229.674 59.8594 229.348 60.0791L228.457 57.9795C228.856 57.7435 229.324 57.5319 229.861 57.3447C230.398 57.1494 230.968 56.9989 231.57 56.8931C232.172 56.7873 232.774 56.7344 233.376 56.7344C234.353 56.7344 235.146 56.8727 235.757 57.1494C236.375 57.4261 236.851 57.8005 237.185 58.2725C237.519 58.7445 237.747 59.2653 237.869 59.835C237.999 60.4046 238.064 60.9824 238.064 61.5684V65.9629C238.064 66.4919 238.121 66.9069 238.235 67.208C238.349 67.501 238.556 67.7044 238.857 67.8184L239.114 67.916L238.186 70.1133L237.832 69.9668C237.295 69.7471 236.864 69.45 236.538 69.0757C236.213 68.7013 236.042 68.327 236.025 67.9526L236.501 68.1846H235.623L236.221 67.8428C235.911 68.4613 235.37 68.9943 234.597 69.4419C233.832 69.8895 232.937 70.1133 231.912 70.1133ZM241.543 69.918V56.9297H244.009V58.5532H244.509L243.569 59.5542C243.773 58.9438 244.09 58.4312 244.521 58.0161C244.961 57.5929 245.478 57.2756 246.072 57.064C246.674 56.8442 247.317 56.7344 248 56.7344C249.05 56.7344 249.905 56.9663 250.564 57.4302C251.231 57.894 251.72 58.4922 252.029 59.2246C252.346 59.957 252.505 60.7301 252.505 61.5439V69.918H250.015V62.0811C250.015 61.0475 249.758 60.2703 249.246 59.7495C248.741 59.2287 248.049 58.9683 247.17 58.9683C246.584 58.9683 246.051 59.0903 245.571 59.3345C245.099 59.5705 244.725 59.9204 244.448 60.3843C244.172 60.8481 244.033 61.4137 244.033 62.0811V69.918H241.543ZM255.691 69.918V56.9419H258.181V69.918H255.691ZM265.359 70.1133C264.578 70.1133 263.866 69.9709 263.223 69.686C262.58 69.3931 262.03 69.0146 261.575 68.5508C261.127 68.0788 260.81 67.5783 260.623 67.0493L262.795 66.1338C262.974 66.6058 263.296 67.0249 263.76 67.3911C264.232 67.7492 264.765 67.9282 265.359 67.9282C265.725 67.9282 266.067 67.859 266.384 67.7207C266.71 67.5742 266.97 67.3789 267.166 67.1348C267.369 66.8825 267.471 66.5895 267.471 66.2559C267.471 65.9222 267.369 65.6374 267.166 65.4014C266.962 65.1572 266.702 64.9538 266.384 64.791C266.067 64.6201 265.737 64.4777 265.396 64.3638C265.054 64.2498 264.749 64.1481 264.48 64.0586C263.959 63.8877 263.43 63.6598 262.893 63.375C262.356 63.0902 261.9 62.7077 261.526 62.2275C261.16 61.7393 260.977 61.1167 260.977 60.3599C260.977 59.603 261.168 58.9561 261.55 58.4189C261.941 57.8737 262.454 57.4587 263.088 57.1738C263.731 56.8809 264.423 56.7344 265.164 56.7344C266.23 56.7344 267.133 57.0029 267.874 57.54C268.622 58.069 269.151 58.6794 269.46 59.3711L267.312 60.2744C267.133 59.9326 266.877 59.6152 266.543 59.3223C266.209 59.0212 265.762 58.8706 265.2 58.8706C264.712 58.8706 264.281 59.0008 263.906 59.2612C263.54 59.5216 263.357 59.8919 263.357 60.3721C263.357 60.779 263.487 61.1086 263.748 61.3608C264.016 61.605 264.35 61.8084 264.749 61.9712C265.147 62.1258 265.554 62.2682 265.969 62.3984C266.311 62.5042 266.698 62.6466 267.129 62.8257C267.568 63.0047 267.992 63.2367 268.398 63.5215C268.813 63.8063 269.155 64.1644 269.424 64.5957C269.701 65.027 269.839 65.556 269.839 66.1826C269.839 66.9476 269.631 67.6271 269.216 68.2212C268.801 68.8153 268.252 69.2791 267.568 69.6128C266.893 69.9465 266.156 70.1133 265.359 70.1133ZM263.271 75.7285V74.3491C264.134 74.3735 264.785 74.2922 265.225 74.105C265.664 73.9178 265.884 73.6248 265.884 73.2261C265.884 72.9494 265.713 72.7134 265.371 72.5181C265.037 72.3228 264.578 72.217 263.992 72.2007L264.724 69.918H265.981L265.322 71.9199L265.115 71.2241C265.839 71.3299 266.417 71.5659 266.848 71.9321C267.279 72.2983 267.495 72.7826 267.495 73.3848C267.495 74.1172 267.149 74.6909 266.458 75.106C265.766 75.5291 264.704 75.7367 263.271 75.7285ZM272.329 69.918V56.9419H274.771V58.5044H275.198L274.221 59.7129C274.555 58.7689 275.084 58.0405 275.808 57.5278C276.532 57.007 277.375 56.7466 278.335 56.7466C279.279 56.7466 280.076 56.9867 280.728 57.4668C281.379 57.9469 281.822 58.5736 282.058 59.3467L281.204 58.5776H282.4L281.35 59.3467C281.741 58.4759 282.331 57.8249 283.12 57.3936C283.918 56.9622 284.784 56.7466 285.72 56.7466C286.469 56.7466 287.12 56.8727 287.673 57.125C288.235 57.3773 288.695 57.7272 289.053 58.1748C289.419 58.6143 289.688 59.1188 289.858 59.6885C290.037 60.2581 290.127 60.8563 290.127 61.4829V69.918H287.637V61.9346C287.637 60.958 287.413 60.2215 286.965 59.7251C286.518 59.2205 285.916 58.9683 285.159 58.9683C284.679 58.9683 284.235 59.0781 283.828 59.2979C283.421 59.5176 283.092 59.8472 282.839 60.2866C282.595 60.7179 282.473 61.2673 282.473 61.9346V69.918H279.983V61.9346C279.983 60.958 279.755 60.2215 279.299 59.7251C278.844 59.2205 278.237 58.9683 277.48 58.9683C276.764 58.9683 276.142 59.2205 275.613 59.7251C275.084 60.2297 274.819 60.9946 274.819 62.02V69.918H272.329ZM296.926 70.1133C296.104 70.1133 295.368 69.9546 294.717 69.6372C294.066 69.3117 293.553 68.856 293.179 68.27C292.804 67.6841 292.617 66.9964 292.617 66.207C292.617 65.377 292.841 64.6608 293.289 64.0586C293.744 63.4564 294.408 62.9966 295.278 62.6792C296.149 62.3618 297.207 62.2031 298.452 62.2031H301.211V64.0464H298.562C297.439 64.0464 296.568 64.2295 295.95 64.5957C295.339 64.9538 295.034 65.4787 295.034 66.1704C295.034 66.5692 295.136 66.911 295.339 67.1958C295.543 67.4725 295.815 67.6882 296.157 67.8428C296.507 67.9893 296.898 68.0625 297.329 68.0625C297.809 68.0625 298.318 67.9567 298.855 67.7451C299.392 67.5335 299.852 67.2161 300.234 66.793C300.617 66.3617 300.808 65.8286 300.808 65.1938V63.8511L300.698 63.1309V61.6172C300.698 61.3812 300.674 61.1126 300.625 60.8115C300.584 60.5023 300.479 60.2093 300.308 59.9326C300.145 59.6478 299.889 59.4118 299.539 59.2246C299.189 59.0374 298.713 58.9438 298.11 58.9438C297.712 58.9438 297.28 58.9927 296.816 59.0903C296.361 59.188 295.917 59.3223 295.486 59.4932C295.063 59.6641 294.688 59.8594 294.363 60.0791L293.472 57.9795C293.87 57.7435 294.338 57.5319 294.875 57.3447C295.413 57.1494 295.982 56.9989 296.584 56.8931C297.187 56.7873 297.789 56.7344 298.391 56.7344C299.368 56.7344 300.161 56.8727 300.771 57.1494C301.39 57.4261 301.866 57.8005 302.2 58.2725C302.533 58.7445 302.761 59.2653 302.883 59.835C303.014 60.4046 303.079 60.9824 303.079 61.5684V65.9629C303.079 66.4919 303.136 66.9069 303.25 67.208C303.363 67.501 303.571 67.7044 303.872 67.8184L304.128 67.916L303.201 70.1133L302.847 69.9668C302.31 69.7471 301.878 69.45 301.553 69.0757C301.227 68.7013 301.056 68.327 301.04 67.9526L301.516 68.1846H300.637L301.235 67.8428C300.926 68.4613 300.385 68.9943 299.612 69.4419C298.847 69.8895 297.952 70.1133 296.926 70.1133ZM306.558 69.918V56.9297H309.023V58.5532H309.524L308.584 59.5542C308.787 58.9438 309.105 58.4312 309.536 58.0161C309.976 57.5929 310.492 57.2756 311.086 57.064C311.689 56.8442 312.332 56.7344 313.015 56.7344C314.065 56.7344 314.919 56.9663 315.579 57.4302C316.246 57.894 316.734 58.4922 317.043 59.2246C317.361 59.957 317.52 60.7301 317.52 61.5439V69.918H315.029V62.0811C315.029 61.0475 314.773 60.2703 314.26 59.7495C313.756 59.2287 313.064 58.9683 312.185 58.9683C311.599 58.9683 311.066 59.0903 310.586 59.3345C310.114 59.5705 309.74 59.9204 309.463 60.3843C309.186 60.8481 309.048 61.4137 309.048 62.0811V69.918H306.558ZM320.706 69.918V56.9419H323.196V69.918H320.706Z" fill="#444444"/>
</svg>
