<svg width="21" height="21" viewBox="0 0 21 21" fill="none" xmlns="http://www.w3.org/2000/svg">
<g clip-path="url(#clip0_316_29)">
<path d="M14.6666 18V16.3333C14.6666 15.4493 14.3154 14.6014 13.6903 13.9763C13.0652 13.3512 12.2173 13 11.3333 13H4.66659C3.78253 13 2.93468 13.3512 2.30956 13.9763C1.68444 14.6014 1.33325 15.4493 1.33325 16.3333V18M19.6666 18V16.3333C19.666 15.5948 19.4202 14.8773 18.9677 14.2936C18.5152 13.7099 17.8817 13.293 17.1666 13.1083M13.8333 3.10833C14.5503 3.29192 15.1858 3.70892 15.6396 4.29359C16.0935 4.87827 16.3398 5.59736 16.3398 6.3375C16.3398 7.07764 16.0935 7.79673 15.6396 8.38141C15.1858 8.96608 14.5503 9.38308 13.8333 9.56667M11.3333 6.33333C11.3333 8.17428 9.84087 9.66667 7.99992 9.66667C6.15897 9.66667 4.66659 8.17428 4.66659 6.33333C4.66659 4.49238 6.15897 3 7.99992 3C9.84087 3 11.3333 4.49238 11.3333 6.33333Z" stroke="#F5F5F5" stroke-width="2" stroke-linecap="round" stroke-linejoin="round"/>
</g>
<defs>
<clipPath id="clip0_316_29">
<rect width="20" height="20" fill="white" transform="translate(0.5 0.5)"/>
</clipPath>
</defs>
</svg>
